<?xml version="1.0" encoding="iso-8859-1"?>
<!-- Generator: Adobe Illustrator 19.0.0, SVG Export Plug-In . SVG Version: 6.00 Build 0)  -->
<svg version="1.1" id="Layer_1" xmlns="http://www.w3.org/2000/svg" xmlns:xlink="http://www.w3.org/1999/xlink" x="0px" y="0px"
	 viewBox="0 0 512 512" style="enable-background:new 0 0 512 512;" xml:space="preserve">
<g>
	<g>
		<path d="M458.667,341.333H352c-17.646,0-32,14.354-32,32c0,17.646,14.354,32,32,32h74.667c5.896,0,10.667-4.771,10.667-10.667
			S432.563,384,426.667,384H352c-5.885,0-10.667-4.781-10.667-10.667c0-5.885,4.781-10.667,10.667-10.667h106.667
			c17.646,0,32,14.354,32,32s-14.354,32-32,32H352c-29.406,0-53.333-23.927-53.333-53.333S322.594,320,352,320h117.333
			c5.896,0,10.667-4.771,10.667-10.667c0-5.896-4.771-10.667-10.667-10.667h-64v-192c0-23.531-19.135-42.667-42.667-42.667h-320
			C19.135,64,0,83.135,0,106.667V320c0,23.531,19.135,42.667,42.667,42.667h235.745c-0.509,3.514-1.078,7.014-1.078,10.667
			C277.333,414.5,310.833,448,352,448h106.667C488.073,448,512,424.073,512,394.667S488.073,341.333,458.667,341.333z
			 M42.667,85.333h320c0.444,0,0.816,0.227,1.254,0.254L211.438,210.75c-5.427,3.417-13.281,2.708-16.823,0.542L41.426,85.585
			C41.859,85.559,42.227,85.333,42.667,85.333z M42.667,341.333c-11.76,0-21.333-9.573-21.333-21.333V106.667
			c0-3.021,0.667-5.874,1.805-8.48l158.883,130.293c6.208,4.052,13.344,6.188,20.646,6.188c7.021,0,13.885-1.979,19.927-5.729
			c0.604-0.323,1.177-0.708,1.719-1.156l157.88-129.598c1.139,2.608,1.807,5.461,1.807,8.483v192h-32
			c-29.672,0-55.145,17.533-67.177,42.667H42.667z"/>
	</g>
</g>
<g>
</g>
<g>
</g>
<g>
</g>
<g>
</g>
<g>
</g>
<g>
</g>
<g>
</g>
<g>
</g>
<g>
</g>
<g>
</g>
<g>
</g>
<g>
</g>
<g>
</g>
<g>
</g>
<g>
</g>
</svg>
