<?xml version="1.0" encoding="iso-8859-1"?>
<!-- Generator: Adobe Illustrator 19.0.0, SVG Export Plug-In . SVG Version: 6.00 Build 0)  -->
<svg version="1.1" id="Capa_1" xmlns="http://www.w3.org/2000/svg" xmlns:xlink="http://www.w3.org/1999/xlink" x="0px" y="0px"
	 viewBox="0 0 512 512" style="enable-background:new 0 0 512 512;" xml:space="preserve">
<g>
	<g>
		<g>
			<path d="M256,181.337c5.891,0,10.667-4.776,10.667-10.667v-42.667c0-5.891-4.776-10.667-10.667-10.667
				c-5.891,0-10.667,4.776-10.667,10.667v42.667C245.333,176.561,250.109,181.337,256,181.337z"/>
			<path d="M329.638,211.375c-0.013-0.008-0.025-0.015-0.038-0.023c-5.074-2.994-11.614-1.308-14.607,3.766
				c-0.002,0.003-0.004,0.007-0.006,0.01l-49.931,84.608c-23.303-5.333-46.518,9.235-51.85,32.539
				c-5.333,23.303,9.235,46.518,32.539,51.85c23.303,5.333,46.518-9.235,51.85-32.539c3.535-15.449-1.655-31.595-13.531-42.09
				l49.28-83.499C336.359,220.937,334.7,214.39,329.638,211.375z M273.947,352.66c-3.875,6.188-10.646,9.964-17.947,10.01
				c-11.782,0-21.333-9.551-21.333-21.333c0-11.782,9.551-21.333,21.333-21.333c2.554,0.017,5.084,0.498,7.467,1.419
				c0.277,0.203,0.448,0.501,0.747,0.672c0.928,0.535,1.931,0.927,2.976,1.163C277.175,329.51,280.2,342.674,273.947,352.66z"/>
			<path d="M416,341.337c0,5.891,4.776,10.667,10.667,10.667h42.667c5.891,0,10.667-4.776,10.667-10.667
				s-4.776-10.667-10.667-10.667h-42.667C420.776,330.67,416,335.446,416,341.337z"/>
			<path d="M85.333,330.67H42.667c-5.891,0-10.667,4.776-10.667,10.667s4.776,10.667,10.667,10.667h42.667
				c5.891,0,10.667-4.776,10.667-10.667S91.224,330.67,85.333,330.67z"/>
			<path d="M160.693,153.539c-2.993-5.075-9.533-6.763-14.608-3.771c-5.075,2.993-6.763,9.533-3.771,14.608l18.133,30.795
				c2.993,5.075,9.533,6.763,14.608,3.771c5.075-2.993,6.763-9.533,3.771-14.608L160.693,153.539z"/>
			<path d="M396.224,256.803c2.893,5.13,9.397,6.945,14.528,4.053l31.477-17.771c5.131-2.895,6.943-9.402,4.048-14.533
				c-2.895-5.131-9.402-6.943-14.533-4.048l-31.477,17.771C395.14,245.172,393.331,251.675,396.224,256.803z"/>
			<path d="M111.733,242.265l-31.477-17.771c-5.131-2.895-11.638-1.083-14.533,4.048s-1.083,11.638,4.048,14.533l31.477,17.771
				c5.131,2.895,11.638,1.083,14.533-4.048S116.864,245.16,111.733,242.265z"/>
			<path d="M365.915,149.792c-0.016-0.01-0.032-0.019-0.048-0.028c-5.074-2.994-11.614-1.308-14.607,3.766
				c-0.002,0.003-0.004,0.007-0.006,0.01l-18.133,30.795c-3.001,5.078-1.318,11.628,3.76,14.629
				c5.078,3.001,11.628,1.318,14.629-3.76l18.133-30.795C372.65,159.343,370.981,152.798,365.915,149.792z"/>
			<path d="M436.491,158.243c-50.133-48.853-116.757-74.763-187.68-72.811C111.616,89.123,0,203.737,0,340.995v57.227
				c0.123,15.798,13.002,28.519,28.8,28.448h454.4c15.798,0.071,28.677-12.65,28.8-28.448v-62.219
				C512,268.803,485.184,205.646,436.491,158.243z M490.667,398.243c-0.111,4.021-3.445,7.198-7.467,7.115H28.8
				c-4.021,0.084-7.356-3.094-7.467-7.115v-57.248c0-125.781,102.304-230.869,228.053-234.229
				c64.119-2.211,126.349,21.912,172.224,66.763c44.523,43.349,69.056,101.056,69.056,162.475V398.243z"/>
		</g>
	</g>
</g>
<g>
</g>
<g>
</g>
<g>
</g>
<g>
</g>
<g>
</g>
<g>
</g>
<g>
</g>
<g>
</g>
<g>
</g>
<g>
</g>
<g>
</g>
<g>
</g>
<g>
</g>
<g>
</g>
<g>
</g>
</svg>
