<svg id="_x31_px" enable-background="new 0 0 24 24" height="512" viewBox="0 0 24 24" width="512" xmlns="http://www.w3.org/2000/svg"><path d="m17.5 24c-.128 0-.256-.049-.354-.146l-5-5c-.143-.143-.186-.358-.108-.545.077-.187.26-.309.462-.309h2.5v-5c0-.551.449-1 1-1h3c.551 0 1 .449 1 1v5h2.5c.202 0 .385.122.462.309.078.187.035.402-.108.545l-5 5c-.098.097-.226.146-.354.146zm-3.793-5 3.793 3.793 3.793-3.793h-1.793c-.276 0-.5-.224-.5-.5v-5.5h-3v5.5c0 .276-.224.5-.5.5z"/><path d="m9.5 6c-4.224 0-8.5-1.03-8.5-3s4.276-3 8.5-3 8.5 1.03 8.5 3-4.276 3-8.5 3zm0-5c-4.578 0-7.5 1.185-7.5 2s2.922 2 7.5 2 7.5-1.185 7.5-2-2.922-2-7.5-2z"/><path d="m17.5 10c-.276 0-.5-.224-.5-.5v-6.5c0-.276.224-.5.5-.5s.5.224.5.5v6.5c0 .276-.224.5-.5.5z"/><path d="m9.5 22c-4.224 0-8.5-1.03-8.5-3v-16c0-.276.224-.5.5-.5s.5.224.5.5v16c0 .815 2.922 2 7.5 2 .568 0 1.125-.02 1.664-.059.27-.021.515.187.535.462s-.187.515-.462.535c-.563.041-1.145.062-1.737.062z"/><path d="m9.68 18h-.18c-4.224 0-8.5-1.03-8.5-3 0-.276.224-.5.5-.5s.5.224.5.5c0 .815 2.922 2 7.5 2h.18c.276 0 .5.224.5.5s-.223.5-.5.5z"/><path d="m9.5 14c-4.224 0-8.5-1.03-8.5-3 0-.276.224-.5.5-.5s.5.224.5.5c0 .815 2.922 2 7.5 2 1.065 0 2.051-.063 2.931-.185.271-.045.526.152.564.426s-.152.526-.426.564c-.925.13-1.958.195-3.069.195z"/><path d="m9.5 10c-4.224 0-8.5-1.03-8.5-3 0-.276.224-.5.5-.5s.5.224.5.5c0 .815 2.922 2 7.5 2s7.5-1.185 7.5-2c0-.276.224-.5.5-.5s.5.224.5.5c0 1.97-4.276 3-8.5 3z"/></svg>