<?xml version="1.0" encoding="iso-8859-1"?>
<!-- Generator: Adobe Illustrator 18.1.1, SVG Export Plug-In . SVG Version: 6.00 Build 0)  -->
<svg version="1.1" id="Capa_1" xmlns="http://www.w3.org/2000/svg" xmlns:xlink="http://www.w3.org/1999/xlink" x="0px" y="0px"
	 viewBox="0 0 408.762 408.762" style="enable-background:new 0 0 408.762 408.762;" xml:space="preserve">
<g>
	<path style="fill:#010002;" d="M8.137,375.678h392.496c4.487,0,8.129-3.642,8.129-8.129V132.049c0-4.487-3.642-8.129-8.129-8.129
		H8.137c-4.487,0-8.129,3.642-8.129,8.129V367.55C0.008,372.037,3.65,375.678,8.137,375.678z M16.265,140.177h376.239v219.244
		H16.265V140.177z"/>
	<path style="fill:#010002;" d="M8.137,113.125c4.487,0,8.129-3.642,8.129-8.129V64.655l10.803-15.306h111.646l60.233,54.331
		c1.496,1.349,3.43,2.089,5.446,2.089h164.449l24.662,7.039c0.748,0.211,1.496,0.317,2.235,0.317c3.536,0,6.787-2.333,7.812-5.901
		c1.236-4.316-1.268-8.811-5.584-10.047l-25.751-7.356c-0.723-0.211-1.479-0.309-2.227-0.309H207.506l-60.233-54.34
		c-1.496-1.341-3.43-2.089-5.446-2.089H22.849c-2.642,0-5.121,1.284-6.641,3.438L1.488,57.371C0.52,58.745,0,60.379,0,62.062v42.927
		C0.008,109.492,3.65,113.125,8.137,113.125z"/>
</g>
<g>
</g>
<g>
</g>
<g>
</g>
<g>
</g>
<g>
</g>
<g>
</g>
<g>
</g>
<g>
</g>
<g>
</g>
<g>
</g>
<g>
</g>
<g>
</g>
<g>
</g>
<g>
</g>
<g>
</g>
</svg>
