<?xml version="1.0" encoding="iso-8859-1"?>
<!-- Generator: Adobe Illustrator 19.0.0, SVG Export Plug-In . SVG Version: 6.00 Build 0)  -->
<svg version="1.1" id="Layer_1" xmlns="http://www.w3.org/2000/svg" xmlns:xlink="http://www.w3.org/1999/xlink" x="0px" y="0px"
	 viewBox="0 0 384 384" style="enable-background:new 0 0 384 384;" xml:space="preserve">
<g>
	<g>
		<g>
			<path d="M224,170.667h85.333c5.896,0,10.667-4.771,10.667-10.667s-4.771-10.667-10.667-10.667H249.75L359.542,39.542
				c4.167-4.167,4.167-10.917,0-15.083c-4.167-4.167-10.917-4.167-15.083,0L234.667,134.25V74.667C234.667,68.771,229.896,64,224,64
				s-10.667,4.771-10.667,10.667V160C213.333,165.896,218.104,170.667,224,170.667z"/>
			<path d="M353.188,252.052c-23.521,0-46.604-3.677-68.479-10.906c-10.917-3.75-23.292-0.844-30.438,6.417l-43.167,32.594
				c-50.063-26.729-80.917-57.563-107.292-107.26l31.667-42.073c8.229-8.229,11.146-20.219,7.604-31.427
				c-7.25-22.021-10.938-45.104-10.938-68.583C132.146,13.823,118.333,0,101.333,0H30.812C13.812,0,0,13.823,0,30.812
				C0,225.563,158.438,384,353.188,384c17,0,30.813-13.823,30.813-30.813v-70.323C384,265.875,370.188,252.052,353.188,252.052z
				 M362.667,353.188c0,5.229-4.25,9.479-9.479,9.479c-182.979,0-331.854-148.865-331.854-331.854c0-5.229,4.25-9.479,9.479-9.479
				h70.521c5.229,0,9.479,4.25,9.479,9.479c0,25.76,4.042,51.083,11.979,75.146c1.104,3.51,0.208,7.177-3.375,10.906l-36.688,48.563
				c-2.458,3.25-2.833,7.625-0.979,11.26c29.938,58.823,66.292,95.198,125.542,125.542c3.604,1.875,8,1.49,11.292-0.979
				l49.667-37.635c2.542-2.521,6.292-3.365,9.667-2.25c24.146,7.979,49.479,12.021,75.271,12.021c5.229,0,9.479,4.25,9.479,9.479
				V353.188z"/>
		</g>
	</g>
</g>
<g>
</g>
<g>
</g>
<g>
</g>
<g>
</g>
<g>
</g>
<g>
</g>
<g>
</g>
<g>
</g>
<g>
</g>
<g>
</g>
<g>
</g>
<g>
</g>
<g>
</g>
<g>
</g>
<g>
</g>
</svg>
