<?xml version="1.0" encoding="iso-8859-1"?>
<!-- Generator: Adobe Illustrator 19.0.0, SVG Export Plug-In . SVG Version: 6.00 Build 0)  -->
<svg version="1.1" id="Capa_1" xmlns="http://www.w3.org/2000/svg" xmlns:xlink="http://www.w3.org/1999/xlink" x="0px" y="0px"
	 viewBox="0 0 512 512" style="enable-background:new 0 0 512 512;" xml:space="preserve">
<g>
	<g>
		<path d="M504.396,339.425c4.2,0,7.604-3.405,7.604-7.604V178.82c0-4.2-3.405-7.604-7.604-7.604H354.033l38.09-36.503
			c1.817-1.741,2.804-4.245,2.427-6.733c-0.58-3.84-3.834-6.514-7.529-6.514h-49.718V11.696c0-4.2-3.405-7.604-7.604-7.604H182.298
			c-4.2,0-7.604,3.405-7.604,7.604v35.214c0,4.2,3.405,7.604,7.604,7.604s7.604-3.405,7.604-7.604V19.3h132.192v109.77
			c0,4.2,3.405,7.604,7.604,7.604h38.396L255.998,244.101L143.901,136.674h38.397c4.2,0,7.604-3.405,7.604-7.604V82.396
			c0-4.2-3.405-7.604-7.604-7.604s-7.604,3.405-7.604,7.604v39.068h-49.496c-2.517,0-4.962,1.124-6.412,3.182
			c-2.239,3.174-1.739,7.356,0.929,9.913l38.25,36.656H7.604c-4.2,0-7.604,3.405-7.604,7.604v321.484c0,4.2,3.405,7.604,7.604,7.604
			h496.791c4.2,0,7.604-3.405,7.604-7.604V367.308c0-4.2-3.405-7.604-7.604-7.604c-4.2,0-7.604,3.405-7.604,7.604v115.873
			L338.555,339.578l158.237-143.58v135.824C496.791,336.021,500.196,339.425,504.396,339.425z M15.209,195.979l158.218,143.612
			L15.209,483.179V195.979z M484.648,492.7h-457.3l157.393-142.839l66.119,60.015c1.45,1.316,3.28,1.974,5.111,1.974
			c1.83,0,3.66-0.658,5.11-1.973l66.158-60.03L484.648,492.7z M255.972,393.974L27.311,186.425h146.522l76.904,73.699
			c1.471,1.409,3.366,2.114,5.261,2.114s3.791-0.705,5.261-2.114l76.903-73.699h146.544L255.972,393.974z"/>
	</g>
</g>
<g>
</g>
<g>
</g>
<g>
</g>
<g>
</g>
<g>
</g>
<g>
</g>
<g>
</g>
<g>
</g>
<g>
</g>
<g>
</g>
<g>
</g>
<g>
</g>
<g>
</g>
<g>
</g>
<g>
</g>
</svg>
