<?xml version="1.0" encoding="iso-8859-1"?>
<!-- Generator: Adobe Illustrator 19.0.0, SVG Export Plug-In . SVG Version: 6.00 Build 0)  -->
<svg version="1.1" id="Layer_1" xmlns="http://www.w3.org/2000/svg" xmlns:xlink="http://www.w3.org/1999/xlink" x="0px" y="0px"
	 viewBox="0 0 512 512" style="enable-background:new 0 0 512 512;" xml:space="preserve">
<g>
	<g>
		<path d="M490.667,153.993V96c0-41.167-33.5-74.667-74.667-74.667h-57.992C326.723,7.68,292.259,0,256,0
			s-70.723,7.68-102.008,21.333H96c-41.167,0-74.667,33.5-74.667,74.667v57.993C7.68,185.279,0,219.742,0,256
			s7.68,70.721,21.333,102.007V416c0,41.167,33.5,74.667,74.667,74.667h57.992C185.277,504.32,219.741,512,256,512
			s70.723-7.68,102.008-21.333H416c41.167,0,74.667-33.5,74.667-74.667v-57.993C504.32,326.721,512,292.258,512,256
			S504.32,185.279,490.667,153.993z M416,42.667c29.417,0,53.333,23.927,53.333,53.333v18.797
			c-18.987-28.591-43.538-53.142-72.13-72.13H416z M315.292,29.217c81.754,21.402,146.095,85.745,167.495,167.503l-84.484,14.087
			c-14.659-46.042-51.069-82.448-97.108-97.107L315.292,29.217z M384,256c0,70.583-57.417,128-128,128s-128-57.417-128-128
			s57.417-128,128-128S384,185.417,384,256z M256,21.333c13.107,0,25.879,1.349,38.406,3.424l-14.03,84.078
			c-7.952-1.314-16.057-2.169-24.376-2.169s-16.424,0.855-24.376,2.171l-14.03-84.079C230.121,22.682,242.893,21.333,256,21.333z
			 M42.667,96c0-29.406,23.917-53.333,53.333-53.333h18.797c-28.592,18.988-53.143,43.539-72.13,72.13V96z M196.708,29.217
			l14.098,84.483c-46.039,14.659-82.449,51.065-97.108,97.107L29.214,196.72C50.613,114.962,114.954,50.62,196.708,29.217z
			 M21.333,256c0-13.104,1.348-25.872,3.423-38.397l84.081,14.018c-1.315,7.953-2.171,16.06-2.171,24.379s0.855,16.426,2.171,24.379
			l-84.079,14.022C22.682,281.875,21.333,269.105,21.333,256z M96,469.333c-29.417,0-53.333-23.927-53.333-53.333v-18.797
			c18.987,28.591,43.538,53.142,72.13,72.13H96z M196.708,482.783c-81.754-21.402-146.094-85.745-167.493-167.5l84.483-14.089
			c14.659,46.042,51.069,82.447,97.108,97.105L196.708,482.783z M256,490.667c-13.107,0-25.879-1.349-38.406-3.424l14.03-84.079
			c7.952,1.315,16.057,2.171,24.376,2.171s16.424-0.855,24.376-2.169l14.03,84.078C281.879,489.318,269.107,490.667,256,490.667z
			 M469.333,416c0,29.406-23.917,53.333-53.333,53.333h-18.797c28.592-18.988,53.143-43.539,72.13-72.13V416z M315.292,482.783
			l-14.098-84.483c46.039-14.659,82.449-51.064,97.108-97.105l84.483,14.089C461.385,397.038,397.046,461.38,315.292,482.783z
			 M487.242,294.401l-84.078-14.022c1.315-7.953,2.169-16.06,2.169-24.379s-0.854-16.426-2.169-24.379l84.079-14.018
			c2.076,12.525,3.423,25.293,3.423,38.397C490.667,269.105,489.318,281.875,487.242,294.401z"/>
	</g>
</g>
<g>
</g>
<g>
</g>
<g>
</g>
<g>
</g>
<g>
</g>
<g>
</g>
<g>
</g>
<g>
</g>
<g>
</g>
<g>
</g>
<g>
</g>
<g>
</g>
<g>
</g>
<g>
</g>
<g>
</g>
</svg>
