<?xml version="1.0" encoding="iso-8859-1"?>
<!-- Generator: Adobe Illustrator 19.0.0, SVG Export Plug-In . SVG Version: 6.00 Build 0)  -->
<svg version="1.1" id="Layer_1" xmlns="http://www.w3.org/2000/svg" xmlns:xlink="http://www.w3.org/1999/xlink" x="0px" y="0px"
	 viewBox="0 0 512.009 512.009" style="enable-background:new 0 0 512.009 512.009;" xml:space="preserve">
<g>
	<g>
		<g>
			<path d="M128,170.671c5.896,0,10.667-4.771,10.667-10.667v-59.583l109.792,109.792c2.083,2.083,4.813,3.125,7.542,3.125
				c2.729,0,5.458-1.042,7.542-3.125l128-128c4.167-4.167,4.167-10.917,0-15.083c-4.167-4.167-10.917-4.167-15.083,0L256,187.588
				L153.75,85.338h59.583c5.896,0,10.667-4.771,10.667-10.667c0-5.896-4.771-10.667-10.667-10.667H128
				c-5.896,0-10.667,4.771-10.667,10.667v85.333C117.333,165.9,122.104,170.671,128,170.671z"/>
			<path d="M503.25,342.359c-66.021-69.438-153.833-107.687-247.26-107.687c-93.417,0-181.229,38.25-247.24,107.687
				C2.938,348.473,0,356.502,0,364.529c0,8.027,2.937,16.053,8.75,22.163l49.167,51.74c11.563,12.146,32.083,12.146,43.646,0
				c16.448-17.302,35.146-31.563,55.479-42.333c10.188-5.25,16.771-16.302,16.677-26.75l7.438-56.063
				c53.583-17.146,96.615-17.135,149.698-0.01l7.333,54.667c0,11.823,6.271,22.615,16.521,28.25
				c20.438,10.823,39.135,25.083,55.594,42.375c5.781,6.094,13.531,9.438,21.823,9.438c8.281,0,16.031-3.344,21.813-9.427
				l49.313-51.875c5.625-5.918,8.569-13.628,8.75-21.396C512.193,357.021,509.25,348.67,503.25,342.359z M487.792,371.994
				l-49.313,51.885c-3.448,3.615-9.292,3.604-12.719-0.01c-18.052-18.969-38.594-34.625-60.927-46.448
				c-3.323-1.833-5.313-5.375-5.406-10.885l-8.313-62.688c-0.531-4.01-3.292-7.375-7.115-8.688
				c-31.115-10.656-59.406-15.979-87.781-15.979c-28.365,0-56.802,5.323-88.188,15.969c-3.844,1.302-6.615,4.677-7.146,8.698
				l-8.406,64.094c0,3.896-2.094,7.594-5.313,9.25c-22.479,11.906-43.021,27.563-61.062,46.531
				c-3.438,3.604-9.292,3.594-12.729,0.01l-49.167-51.74c-3.854-4.042-3.854-10.885,0-14.927
				c61.948-65.177,144.26-101.063,231.781-101.063s169.844,35.885,231.802,101.063C491.646,361.109,491.646,367.952,487.792,371.994
				z"/>
		</g>
	</g>
</g>
<g>
</g>
<g>
</g>
<g>
</g>
<g>
</g>
<g>
</g>
<g>
</g>
<g>
</g>
<g>
</g>
<g>
</g>
<g>
</g>
<g>
</g>
<g>
</g>
<g>
</g>
<g>
</g>
<g>
</g>
</svg>
