<?xml version="1.0" encoding="iso-8859-1"?>
<!-- Generator: Adobe Illustrator 19.0.0, SVG Export Plug-In . SVG Version: 6.00 Build 0)  -->
<svg version="1.1" id="Capa_1" xmlns="http://www.w3.org/2000/svg" xmlns:xlink="http://www.w3.org/1999/xlink" x="0px" y="0px"
	 viewBox="0 0 357.324 357.324" style="enable-background:new 0 0 357.324 357.324;" xml:space="preserve">
<g>
	<g>
		<g>
			<path style="fill:#231F20;" d="M311.662,85.724c0-0.4-0.4-0.8-0.8-1.2c-0.4-0.4-0.4-0.8-0.8-1.2l-78-81.6c-0.4-0.4-1.2-1.2-2-1.2
				c-0.8-0.4-1.6-0.4-2.8-0.4h-175.2c-4-0.8-6.8,2.4-6.8,6v344.4c0,3.6,3.2,6.8,6.8,6.8h253.2c3.6,0,6.8-3.2,6.8-6.8v-262.4
				C312.062,87.324,312.062,86.524,311.662,85.724z M233.662,23.324l55.2,58h-55.2V23.324z M298.462,344.124h-239.6v-331.2h161.6
				v75.2c0,3.6,3.2,6.8,6.8,6.8h71.2V344.124z"/>
			<path style="fill:#231F20;" d="M85.662,101.724h81.2c3.6,0,6.8-3.2,6.8-6.8c0-3.6-3.2-6.8-6.8-6.8h-81.2c-3.6,0-6.8,3.2-6.8,6.8
				C78.862,98.924,81.662,101.724,85.662,101.724z"/>
			<path style="fill:#231F20;" d="M166.862,256.924h-81.2c-3.6,0-6.8,3.2-6.8,6.8c0,3.6,3.2,6.8,6.8,6.8h81.2c3.6,0,6.8-3.2,6.8-6.8
				S170.462,256.924,166.862,256.924z"/>
			<path style="fill:#231F20;" d="M78.462,152.924c0,4,2.8,6.8,6.8,6.8h163.6c3.6,0,6.8-3.2,6.8-6.8c0-3.6-3.2-6.8-6.8-6.8h-163.6
				C81.662,146.124,78.462,149.324,78.462,152.924z"/>
			<path style="fill:#231F20;" d="M249.262,180.124h-163.6c-3.6,0-6.8,3.2-6.8,6.8c0,3.6,3.2,6.8,6.8,6.8h163.6
				c3.6,0,6.8-3.2,6.8-6.8C256.062,182.924,252.862,180.124,249.262,180.124z"/>
			<path style="fill:#231F20;" d="M248.462,213.724h-163.6c-3.6,0-6.8,3.2-6.8,6.8s3.2,6.8,6.8,6.8h163.6c3.6,0,6.8-3.2,6.8-6.8
				C255.262,216.924,252.462,213.724,248.462,213.724z"/>
		</g>
	</g>
</g>
<g>
</g>
<g>
</g>
<g>
</g>
<g>
</g>
<g>
</g>
<g>
</g>
<g>
</g>
<g>
</g>
<g>
</g>
<g>
</g>
<g>
</g>
<g>
</g>
<g>
</g>
<g>
</g>
<g>
</g>
</svg>
