<?xml version="1.0" encoding="iso-8859-1"?>
<!-- Generator: Adobe Illustrator 19.0.0, SVG Export Plug-In . SVG Version: 6.00 Build 0)  -->
<svg version="1.1" id="Layer_1" xmlns="http://www.w3.org/2000/svg" xmlns:xlink="http://www.w3.org/1999/xlink" x="0px" y="0px"
	 viewBox="0 0 469.333 469.333" style="enable-background:new 0 0 469.333 469.333;" xml:space="preserve">
<g>
	<g>
		<path d="M469.333,146.605c0-21.726-21.889-57.513-55.785-91.165c-30.656-30.456-69.27-56.882-93.946-55.378
			c-6.024,0.367-11.218,2.527-15.262,6.551c-0.627,0.621-1.276,1.418-1.914,2.261l-0.034-0.029c-0.09,0.111-0.147,0.237-0.237,0.348
			c-0.087,0.121-0.166,0.249-0.254,0.374C287,28.183,278.852,50.634,277.533,73.697l-78.724,57.205
			c-42.179-7.43-84.663,0.883-120.261,23.076c-10.393,6.489-16.022,18.654-14.336,31.006c7.008,50.945,29.048,97.136,61.365,134.114
			L2.851,451.409c-3.901,4.208-3.787,10.749,0.271,14.8c2.081,2.083,4.807,3.125,7.532,3.125c2.601,0,5.202-0.948,7.251-2.854
			l132.164-122.864c36.94,32.351,83.078,54.412,133.964,61.424c1.467,0.208,2.923,0.302,4.37,0.302
			c10.757,0,20.891-5.468,26.602-14.654c16.948-27.236,25.905-58.544,25.905-90.551c0-9.977-1.138-20.118-2.946-30.237
			l57.154-78.442c23.952-1.432,47.701-10.59,66.644-26.422l-0.172-0.176c0.338-0.296,0.792-0.384,1.116-0.706
			C465.734,161.155,469.333,155.676,469.333,146.605z M297.292,379.396c-1.99,3.198-6.167,5.042-9.99,4.51
			C182.834,369.521,99.813,286.51,85.428,182.042c-0.542-3.896,1.313-8.01,4.5-10c30.939-19.285,67.708-26.656,104.556-20.348
			c10.184,63.354,59.747,112.969,123.125,123.165c1.449,8.465,2.392,16.935,2.392,25.255
			C320,328.135,312.146,355.552,297.292,379.396z M323.084,254.667c-56.24-8.021-100.573-52.49-108.448-108.75l64.621-46.898
			c8.016,46.443,44.521,82.988,90.949,91.047L323.084,254.667z M389.334,170.667c-49.99,0-90.667-40.677-90.667-90.667
			c0-0.186,0.047-0.366,0.048-0.552h0.004l-0.003-0.01c0.069-10.635,2.112-20.991,5.884-30.828
			c8.813,19.816,26.163,43.69,49.337,66.672c21.167,21.004,46.051,39.832,67.605,49.125
			C411.308,168.447,400.495,170.667,389.334,170.667z M448.303,148.927c-4.979,3.385-36.917-6.677-79.344-48.792
			c-42.156-41.823-52.396-73.51-49.26-78.396c0.573-0.385,1.5-0.583,2.76-0.583c9.698,0,39.031,12.104,76.583,49.375
			C441.198,112.354,451.438,144.042,448.303,148.927z"/>
	</g>
</g>
<g>
</g>
<g>
</g>
<g>
</g>
<g>
</g>
<g>
</g>
<g>
</g>
<g>
</g>
<g>
</g>
<g>
</g>
<g>
</g>
<g>
</g>
<g>
</g>
<g>
</g>
<g>
</g>
<g>
</g>
</svg>
