<svg height="512" viewBox="0 0 128 128" width="512" xmlns="http://www.w3.org/2000/svg"><g><path d="m96.47 54.88a10.028 10.028 0 0 0 -9.77-10.036v-16.067a6.247 6.247 0 0 0 -11.97-2.508l-46.924 12.561h-6.106a7.755 7.755 0 0 0 -7.226 4.97 11.219 11.219 0 0 0 -9.724 11.08 11.157 11.157 0 0 0 9.724 11.068 7.755 7.755 0 0 0 7.226 4.972h6.105l3.915 1.049 4.08 27.048a7.681 7.681 0 1 0 15.19-2.288l-3.071-20.421 26.82 7.184a6.247 6.247 0 0 0 11.961-2.518v-16.068a10.045 10.045 0 0 0 9.77-10.026zm-50.136 17.38a1.713 1.713 0 0 0 -.19-.051l-16.694-4.472v-25.724l44.75-11.98v49.693zm-38.084-17.38a7.706 7.706 0 0 1 5.7-7.412v14.816a7.7 7.7 0 0 1 -3.45-1.984 7.62 7.62 0 0 1 -2.25-5.42zm9.2 8.29v-16.59a4.254 4.254 0 0 1 4.25-4.25h4.25v25.09h-4.25a4.254 4.254 0 0 1 -4.25-4.25zm30.079 34.081a4.181 4.181 0 1 1 -8.268 1.249l-3.852-25.543 8.822 2.363zm32.925-13.527a2.753 2.753 0 0 1 -2.75-2.75v-52.2a2.75 2.75 0 0 1 5.5 0v17.767.039s0 .026 0 .039v16.512.039s0 .026 0 .039v17.765a2.753 2.753 0 0 1 -2.75 2.75zm6.246-22.318v-13.062a6.48 6.48 0 0 1 4.345 1.9 6.539 6.539 0 0 1 -4.345 11.162z"/><path d="m47.966 41.454a1.747 1.747 0 0 0 -2.143-1.238l-8.467 2.266a1.75 1.75 0 1 0 .905 3.381l8.467-2.263a1.75 1.75 0 0 0 1.238-2.146z"/><path d="m121.5 53.125h-13.875a1.75 1.75 0 0 0 0 3.5h13.875a1.75 1.75 0 0 0 0-3.5z"/><path d="m103.438 45.449a1.748 1.748 0 0 0 2.379.682l12.136-6.726a1.75 1.75 0 1 0 -1.7-3.06l-12.133 6.725a1.751 1.751 0 0 0 -.682 2.379z"/><path d="m96.736 38.386a1.752 1.752 0 0 0 2.411-.557l7.353-11.766a1.75 1.75 0 1 0 -2.967-1.855l-7.352 11.766a1.75 1.75 0 0 0 .555 2.412z"/><path d="m117.953 70.345-12.136-6.726a1.75 1.75 0 0 0 -1.7 3.061l12.136 6.725a1.73 1.73 0 0 0 .847.22 1.75 1.75 0 0 0 .85-3.28z"/><path d="m99.147 71.921a1.749 1.749 0 1 0 -2.966 1.855l7.355 11.766a1.75 1.75 0 1 0 2.967-1.855z"/></g></svg>