<svg height="512pt" viewBox="0 -15 512.0005 512" width="512pt" xmlns="http://www.w3.org/2000/svg"><path d="m414.632812 97.367188c-27.898437-27.898438-73.296874-27.898438-101.199218 0-27.898438 27.902343-27.898438 73.300781 0 101.199218 27.902344 27.902344 73.296875 27.902344 101.199218 0 27.902344-27.902344 27.902344-73.296875 0-101.199218zm-90.589843 90.59375c-22.050781-22.050782-22.050781-57.933594 0-79.984376 22.050781-22.050781 57.929687-22.050781 79.984375 0 22.050781 22.050782 22.050781 57.929688 0 79.984376-22.054688 22.050781-57.933594 22.050781-79.984375 0zm0 0"/><path d="m393.417969 118.582031c-16.203125-16.199219-42.566407-16.203125-58.765625 0-16.203125 16.203125-16.203125 42.566407 0 58.769531 16.199218 16.203126 42.5625 16.203126 58.765625 0 16.203125-16.203124 16.203125-42.566406 0-58.769531zm-48.160157 48.160157c-10.355468-10.351563-10.355468-27.199219 0-37.550782 10.355469-10.355468 27.199219-10.355468 37.554688 0 10.351562 10.351563 10.351562 27.199219 0 37.550782-10.355469 10.355468-27.199219 10.355468-37.554688 0zm0 0"/><path d="m375.671875 303.070312c18.25-13.386718 39.082031-29.355468 62.46875-48.289062 32.949219-26.671875 55.207031-61.273438 66.15625-102.839844 9.65625-36.65625 8.488281-72 5.8125-95.191406-3.34375-28.953125-25.902344-51.511719-54.859375-54.859375-23.191406-2.675781-58.53125-3.84375-95.191406 5.816406-41.566406 10.945313-76.167969 33.203125-102.839844 66.152344-18.929688 23.382813-34.894531 44.214844-48.28125 62.460937-16.195312-7.226562-34.039062-3.542968-47.925781 10.34375-8.742188 8.742188-27.097657 32.992188-41.511719 56.921876-26.640625 44.230468-21.980469 57.085937-16.160156 62.90625 2.371094 2.371093 5.90625 4.535156 12.207031 4.5l-47.046875 47.046874c-14.402344 14.402344-14.402344 37.835938 0 52.238282s37.835938 14.402344 52.238281 0l9.164063-9.164063c5.785156-5.785156 15.203125-5.785156 20.988281 0 5.785156 5.785157 5.785156 15.199219 0 20.984375l-37.90625 37.90625c-14.402344 14.402344-14.402344 37.835938 0 52.238282 14.402344 14.402343 37.835937 14.402343 52.238281 0l23.789063-23.792969c2.929687-2.929688 2.929687-7.675781 0-10.605469-2.929688-2.929688-7.675781-2.929688-10.605469 0l-23.792969 23.789062c-8.550781 8.554688-22.46875 8.554688-31.023437 0-8.550782-8.554687-8.550782-22.46875 0-31.023437l37.90625-37.90625c11.636718-11.632813 11.636718-30.5625 0-42.199219-11.636719-11.636718-30.566406-11.636718-42.199219 0l-9.167969 9.164063c-8.554687 8.554687-22.46875 8.554687-31.023437.003906-8.554688-8.554687-8.554688-22.472656 0-31.023437l67.402343-67.402344c4.222657-2.085938 8.855469-4.566406 13.945313-7.5 2.679687 5.953125 6.453125 11.511718 11.308594 16.367187l13.578125 13.578125c-20.714844 37.011719-16.320313 48.480469-10.914063 53.886719 5.402344 5.402344 16.875 9.800781 53.886719-10.917969l13.574219 13.578125c4.855469 4.855469 10.414062 8.628907 16.367187 11.3125-2.9375 5.09375-5.417968 9.726563-7.503906 13.953125-.015625.015625-.035156.027344-.050781.042969l-48.949219 48.953125c-2.929688 2.925781-2.929688 7.675781 0 10.605469 2.929688 2.929687 7.679688 2.929687 10.609375 0l28.648437-28.652344c-.035156 6.304687 2.132813 9.835937 4.503907 12.210937 5.820312 5.820313 18.675781 10.476563 62.902343-16.160156 23.933594-14.414062 48.183594-32.773437 56.925782-41.515625 13.785156-13.789062 17.441406-31.832031 10.332031-47.917969zm-261.683594-47.226562c-1.007812-2.730469.683594-15.671875 19.753907-46.8125 13.558593-22.132812 30.21875-44.101562 37.878906-51.761719 8.425781-8.425781 18.542968-11.296875 28.179687-8.347656-16.03125 22.402344-27.738281 40.292969-35.921875 53.527344-6.957031 11.246093-9.4375 24.117187-7.71875 36.425781-27.792968 16.441406-39.585937 17.921875-42.171875 16.96875zm71.085938 71.085938c-1.007813-2.730469.683593-15.671876 19.753906-46.8125 13.558594-22.132813 30.21875-44.101563 37.878906-51.761719 15.308594-15.3125 31.769531-9.71875 41.210938-.273438 9.445312 9.441407 15.039062 25.902344-.273438 41.210938-7.660156 7.664062-29.628906 24.324219-51.761719 37.878906-31.140624 19.074219-44.082031 20.761719-46.808593 19.757813zm56.570312-8.152344c22.472657-13.945313 44.390625-30.65625 52.609375-38.875 18.457032-18.457032 18.570313-44.128906.273438-62.429688-18.296875-18.296875-43.96875-18.183594-62.429688.277344-8.214844 8.214844-24.925781 30.132812-38.875 52.609375l-10.851562-10.851563c-13.148438-13.148437-15.503906-33.367187-5.734375-49.164062 15.652343-25.3125 44.363281-67.898438 92.242187-127.042969 24.625-30.417969 56.585938-50.972656 95-61.089843 34.402344-9.058594 67.738282-7.945313 89.648438-5.414063 22 2.539063 39.136718 19.675781 41.679687 41.675781 1.46875 12.742188 2.445313 29.355469 1.238281 47.785156l-76.667968-76.667968c-2.929688-2.929688-7.679688-2.929688-10.609375 0-2.929688 2.925781-2.929688 7.675781 0 10.605468l85.234375 85.234376c-1.105469 7.4375-2.59375 15.035156-4.613282 22.691406-10.117187 38.417968-30.671874 70.378906-61.085937 95-59.148437 47.882812-101.734375 76.59375-127.042969 92.242187-15.800781 9.773438-36.015625 7.414063-49.164062-5.734375zm61.324219 59.480468c-31.140625 19.074219-44.082031 20.761719-46.808594 19.757813-.953125-2.585937.523438-14.378906 16.964844-42.175781 12.3125 1.71875 25.179688-.761719 36.425781-7.714844 13.238281-8.1875 31.132813-19.894531 53.542969-35.9375 2.976562 9.625.128906 19.699219-8.363281 28.191406-7.660157 7.664063-29.628907 24.324219-51.761719 37.878906zm0 0"/><path d="m63.117188 375.722656c-14.421876-14.417968-37.882813-14.417968-52.304688 0-14.417969 14.421875-14.417969 37.882813 0 52.300782 14.421875 14.421874 37.882812 14.421874 52.300781.003906 14.421875-14.421875 14.421875-37.882813.003907-52.304688zm-41.695313 41.695313c-8.570313-8.570313-8.570313-22.515625 0-31.085938 8.570313-8.570312 22.515625-8.570312 31.085937 0 8.570313 8.570313 8.570313 22.515625 0 31.085938-8.570312 8.570312-22.515624 8.570312-31.085937 0zm0 0"/></svg>