<?xml version="1.0" encoding="iso-8859-1"?>
<!-- Generator: Adobe Illustrator 19.0.0, SVG Export Plug-In . SVG Version: 6.00 Build 0)  -->
<svg version="1.1" id="Capa_1" xmlns="http://www.w3.org/2000/svg" xmlns:xlink="http://www.w3.org/1999/xlink" x="0px" y="0px"
	 viewBox="0 0 512 512" style="enable-background:new 0 0 512 512;" xml:space="preserve">
<g>
	<g>
		<path d="M302.67,171.345c-12.466-12.466-29.04-19.331-46.669-19.331c-17.629,0-34.204,6.865-46.669,19.331
			C196.865,183.811,190,200.385,190,218.014c0,17.629,6.865,34.203,19.331,46.669c12.867,12.866,29.768,19.3,46.669,19.3
			s33.802-6.434,46.669-19.3C315.135,252.217,322,235.643,322,218.014C322,200.385,315.135,183.811,302.67,171.345z M210,218.014
			c0-12.287,4.785-23.839,13.473-32.526c8.688-8.688,20.24-13.474,32.527-13.474c8.881,0,17.371,2.512,24.679,7.178l-63.501,63.501
			C212.512,235.384,210,226.894,210,218.014z M288.528,250.541c-15.507,15.507-39.416,17.595-57.199,6.288l63.494-63.494
			c4.666,7.309,7.178,15.799,7.178,24.679C302,230.301,297.216,241.853,288.528,250.541z"/>
	</g>
</g>
<g>
	<g>
		<path d="M423.07,359.93c-1.86-1.86-4.44-2.93-7.07-2.93s-5.21,1.069-7.07,2.93c-1.86,1.86-2.93,4.44-2.93,7.07
			s1.07,5.21,2.93,7.069c1.86,1.86,4.44,2.931,7.07,2.931s5.21-1.07,7.07-2.931c1.86-1.859,2.93-4.439,2.93-7.069
			S424.93,361.79,423.07,359.93z"/>
	</g>
</g>
<g>
	<g>
		<path d="M416,333.668c5.523,0,10-4.478,10-10v-3.716c0-26.723-15.818-50.914-40.298-61.63l-19.246-8.425
			c1.006-10.435,1.573-21.443,1.573-33.023c0-74.295-28.812-128.748-52.981-161.345c-26.236-35.384-52.382-53.101-53.482-53.837
			c-3.367-2.256-7.763-2.256-11.13,0c-1.1,0.736-27.246,18.453-53.482,53.837c-24.17,32.597-52.981,87.05-52.981,161.345
			c0,11.58,0.567,22.588,1.573,33.023l-19.246,8.425c-24.481,10.716-40.3,34.907-40.3,61.63V421c0,3.446,1.774,6.649,4.696,8.478
			c1.616,1.011,3.457,1.522,5.305,1.522c1.492,0,2.988-0.334,4.372-1.007l93.02-45.228c7.188,9.901,12.336,15.011,12.706,15.374
			c1.87,1.834,4.384,2.861,7.002,2.861H246v18c0,5.522,4.477,10,10,10s10-4.478,10-10v-18h32.898c2.619,0,5.133-1.027,7.002-2.861
			c0.37-0.362,5.519-5.473,12.706-15.374l93.02,45.228c1.384,0.674,2.88,1.007,4.372,1.007c1.847,0,3.689-0.512,5.305-1.522
			C424.226,427.65,426,424.447,426,421v-15.333c0-5.522-4.477-10-10-10c-5.308,0-9.65,4.137-9.98,9.361l-76.374-37.134
			c2.537-4.29,5.142-8.999,7.744-14.151c9.644-19.093,20.563-47.013,26.409-83.177l13.883,6.077
			c17.203,7.53,28.318,24.53,28.318,43.309v3.716C406,329.19,410.477,333.668,416,333.668z M212.544,68.083
			c17.307-23.492,34.813-38.761,43.467-45.609c8.555,6.755,25.741,21.729,42.971,44.968c6.53,8.806,13.423,19.35,19.915,31.56
			H192.98C198.674,88.378,205.19,78.064,212.544,68.083z M106,405.019v-85.067c0-18.778,11.116-35.778,28.319-43.308l13.883-6.077
			c5.845,36.164,16.765,64.084,26.408,83.177c2.602,5.152,5.207,9.861,7.744,14.151L106,405.019z M319.98,343.845
			c-10.314,20.637-20.739,33.736-25.465,39.155H266v-40.667c0-5.522-4.477-10-10-10s-10,4.478-10,10V383h-28.522
			c-11.096-12.707-53.506-67.738-53.506-166.127c0-34.701,6.518-67.44,19.425-97.873h145.027
			c11.264,26.655,19.607,59.383,19.607,97.873C348.029,275.434,332.776,318.245,319.98,343.845z"/>
	</g>
</g>
<g>
	<g>
		<path d="M358.571,451.938c-4.886,0-9.605,0.716-14.073,2.027c-9.844-14.752-26.501-23.876-44.667-23.876
			c-18.044,0-34.026,8.956-43.767,22.646c-9.741-13.69-25.723-22.646-43.767-22.646c-18.166,0-34.822,9.124-44.667,23.876
			c-4.468-1.311-9.187-2.028-14.073-2.028c-27.604,0-50.063,22.458-50.063,50.063c0,5.522,4.477,10,10,10s10-4.478,10-10
			c0-16.576,13.486-30.063,30.063-30.063c16.577,0,30.063,13.486,30.063,30.063c0,5.522,4.477,10,10,10s10-4.478,10-10
			c0-15.498-7.08-29.372-18.174-38.562c6.281-8.286,16.142-13.349,26.851-13.349c18.581,0,33.698,15.116,33.698,33.697
			c0,5.522,4.477,10,10,10c0.023,0,0.046-0.003,0.069-0.003c0.023,0,0.046,0.003,0.069,0.003c5.523,0,10-4.478,10-10
			c0-18.581,15.117-33.697,33.698-33.697c10.709,0,20.57,5.063,26.851,13.349c-11.094,9.19-18.173,23.064-18.173,38.562
			c0,5.522,4.477,10,10,10s10-4.478,10-10c0-16.576,13.486-30.063,30.063-30.063c16.577,0,30.063,13.486,30.063,30.063
			c0,5.522,4.477,10,10,10s10-4.478,10-10C408.633,474.396,386.175,451.938,358.571,451.938z"/>
	</g>
</g>
<g>
	<g>
		<path d="M263.07,303.261c-1.86-1.86-4.44-2.93-7.07-2.93s-5.21,1.069-7.07,2.93c-1.86,1.86-2.93,4.44-2.93,7.07
			s1.07,5.21,2.93,7.069c1.86,1.87,4.44,2.931,7.07,2.931s5.21-1.061,7.07-2.931c1.86-1.859,2.93-4.439,2.93-7.069
			S264.93,305.121,263.07,303.261z"/>
	</g>
</g>
<g>
</g>
<g>
</g>
<g>
</g>
<g>
</g>
<g>
</g>
<g>
</g>
<g>
</g>
<g>
</g>
<g>
</g>
<g>
</g>
<g>
</g>
<g>
</g>
<g>
</g>
<g>
</g>
<g>
</g>
</svg>
