<?xml version="1.0" encoding="iso-8859-1"?>
<!-- Generator: Adobe Illustrator 19.0.0, SVG Export Plug-In . SVG Version: 6.00 Build 0)  -->
<svg version="1.1" id="Capa_1" xmlns="http://www.w3.org/2000/svg" xmlns:xlink="http://www.w3.org/1999/xlink" x="0px" y="0px"
	 viewBox="0 0 512 512" style="enable-background:new 0 0 512 512;" xml:space="preserve">
<g>
	<g>
		<g>
			<path d="M142.592,62.208c-0.813-0.777-1.77-1.388-2.816-1.801c-3.18-1.334-6.849-0.624-9.301,1.801
				c-0.753,0.827-1.359,1.776-1.792,2.807c-0.438,1.029-0.67,2.133-0.683,3.251c0.034,2.259,0.917,4.422,2.475,6.059l1.28,1.05
				c0.475,0.326,0.992,0.587,1.536,0.777c0.487,0.239,1.003,0.411,1.536,0.512c0.565,0.083,1.135,0.129,1.707,0.137
				c1.115-0.017,2.216-0.249,3.243-0.683c1.03-0.439,1.982-1.045,2.816-1.792c1.557-1.637,2.441-3.8,2.475-6.059
				c0.03-1.122-0.204-2.236-0.683-3.251C143.951,63.984,143.345,63.035,142.592,62.208z"/>
			<path d="M142.592,156.075c-0.815-0.774-1.771-1.385-2.816-1.801c-3.18-1.334-6.849-0.624-9.301,1.801
				c-0.753,0.827-1.359,1.776-1.792,2.807c-0.438,1.029-0.67,2.133-0.683,3.251c0.034,2.259,0.917,4.422,2.475,6.059l1.28,1.041
				c0.475,0.326,0.992,0.587,1.536,0.776c0.487,0.239,1.003,0.411,1.536,0.512c0.565,0.086,1.135,0.135,1.707,0.145
				c1.115-0.017,2.216-0.249,3.243-0.683c1.03-0.439,1.982-1.045,2.816-1.792c1.557-1.637,2.441-3.8,2.475-6.059
				c0.03-1.122-0.204-2.236-0.683-3.251C143.951,157.851,143.345,156.902,142.592,156.075z"/>
			<path d="M142.592,249.941c-0.815-0.774-1.771-1.385-2.816-1.801c-3.18-1.334-6.849-0.624-9.301,1.801
				c-0.753,0.827-1.359,1.776-1.792,2.807c-0.438,1.029-0.67,2.133-0.683,3.251c0.033,2.259,0.917,4.422,2.475,6.059l1.28,1.033
				c0.475,0.326,0.992,0.587,1.536,0.777c0.487,0.239,1.003,0.411,1.536,0.512c0.564,0.093,1.135,0.145,1.707,0.154
				c1.115-0.017,2.216-0.249,3.243-0.683c1.032-0.436,1.984-1.042,2.816-1.792c1.558-1.636,2.442-3.8,2.475-6.059
				c0.029-1.122-0.205-2.236-0.683-3.251C143.951,251.718,143.345,250.768,142.592,249.941z"/>
			<path d="M142.592,343.808c-0.816-0.771-1.772-1.38-2.816-1.792c-3.178-1.336-6.847-0.629-9.301,1.792
				c-0.753,0.83-1.359,1.782-1.792,2.816c-0.437,1.026-0.669,2.128-0.683,3.243c0.033,2.259,0.917,4.422,2.475,6.059l1.28,1.033
				c0.476,0.323,0.992,0.581,1.536,0.768c0.484,0.247,1.001,0.419,1.536,0.512c0.564,0.096,1.135,0.15,1.707,0.162
				c1.115-0.013,2.217-0.245,3.243-0.683c1.034-0.433,1.986-1.039,2.816-1.792c1.558-1.636,2.442-3.8,2.475-6.059
				c0.029-1.119-0.204-2.23-0.683-3.243C143.951,345.59,143.345,344.638,142.592,343.808z"/>
			<path d="M426.667,0h-307.2c-14.138,0-25.6,11.461-25.6,25.6v34.133h-25.6c-4.713,0-8.533,3.82-8.533,8.533
				s3.82,8.533,8.533,8.533h25.6v76.8h-25.6c-4.713,0-8.533,3.82-8.533,8.533s3.82,8.533,8.533,8.533h25.6v76.8h-25.6
				c-4.713,0-8.533,3.82-8.533,8.533s3.82,8.533,8.533,8.533h25.6v76.8h-25.6c-4.713,0-8.533,3.82-8.533,8.533
				s3.82,8.533,8.533,8.533h25.6v76.8h-25.6c-4.713,0-8.533,3.82-8.533,8.533s3.82,8.533,8.533,8.533h25.6V486.4
				c0,14.138,11.462,25.6,25.6,25.6h307.2c14.138,0,25.6-11.461,25.6-25.6V25.6C452.267,11.461,440.805,0,426.667,0z M435.2,486.4
				c0,4.713-3.82,8.533-8.533,8.533h-307.2c-4.713,0-8.533-3.82-8.533-8.533V25.6c0-4.713,3.82-8.533,8.533-8.533h307.2
				c4.713,0,8.533,3.82,8.533,8.533V486.4z"/>
			<path d="M142.592,437.675c-0.816-0.771-1.772-1.38-2.816-1.792c-3.178-1.336-6.847-0.629-9.301,1.792
				c-0.753,0.83-1.359,1.782-1.792,2.816c-0.437,1.026-0.669,2.128-0.683,3.243c0.033,2.259,0.917,4.422,2.475,6.059l1.28,1.024
				c0.476,0.323,0.992,0.581,1.536,0.768c0.484,0.247,1.001,0.419,1.536,0.512c0.564,0.099,1.134,0.156,1.707,0.171
				c1.115-0.013,2.217-0.245,3.243-0.683c1.034-0.433,1.986-1.039,2.816-1.792c1.558-1.636,2.442-3.8,2.475-6.059
				c0.029-1.119-0.204-2.23-0.683-3.243C143.951,439.457,143.345,438.505,142.592,437.675z"/>
			<path d="M278.468,181.922c0.685-2.291,2.939-3.741,5.308-3.413l30.345,3.789c11.416,1.404,21.987-6.219,24.26-17.493
				l6.938-34.654l8.269-41.335c2.294-11.493-4.843-22.761-16.213-25.6l-30.49-7.62c-10.317-2.668-21.265-1.246-30.558,3.968
				C243.695,78.106,204.8,127.266,204.8,256s38.895,177.894,71.509,196.471c6.126,3.475,13.053,5.292,20.096,5.274
				c3.528-0.005,7.041-0.443,10.462-1.306l30.49-7.62c11.371-2.839,18.507-14.107,16.213-25.6l-15.206-75.947
				c-2.273-11.275-12.845-18.898-24.26-17.493l-30.345,3.789c-2.367,0.316-4.614-1.129-5.308-3.413l-1.143-3.942
				c-6.685-22.774-9.523-46.504-8.397-70.212c-1.112-23.684,1.731-47.387,8.414-70.135L278.468,181.922z M262.025,177.254
				l-1.101,3.789c-7.171,24.307-10.239,49.64-9.079,74.957c-1.152,25.318,1.926,50.651,9.105,74.957l1.101,3.789
				c2.921,10.446,13.091,17.145,23.842,15.701l30.345-3.789c2.547-0.309,4.903,1.393,5.41,3.908l15.206,75.947
				c0.511,2.57-1.085,5.089-3.627,5.726l-30.49,7.629c-6.058,1.6-12.501,0.796-17.98-2.244
				c-40.559-23.074-62.891-87.578-62.891-181.623s22.332-158.549,62.891-181.641c3.559-2.007,7.579-3.051,11.665-3.029
				c2.129,0.002,4.25,0.266,6.315,0.785l30.49,7.629c2.541,0.633,4.137,3.149,3.627,5.717l-15.206,75.947
				c-0.514,2.51-2.865,4.209-5.41,3.908l-30.37-3.763C275.115,160.106,264.942,166.806,262.025,177.254z"/>
		</g>
	</g>
</g>
<g>
</g>
<g>
</g>
<g>
</g>
<g>
</g>
<g>
</g>
<g>
</g>
<g>
</g>
<g>
</g>
<g>
</g>
<g>
</g>
<g>
</g>
<g>
</g>
<g>
</g>
<g>
</g>
<g>
</g>
</svg>
