<?xml version="1.0"?>
<svg xmlns="http://www.w3.org/2000/svg" viewBox="0 0 64 64" width="512" height="512"><g id="Template"><path d="M59,2H5A3,3,0,0,0,2,5V59a3,3,0,0,0,3,3H59a3,3,0,0,0,3-3V5A3,3,0,0,0,59,2ZM4,5A1,1,0,0,1,5,4H59a1,1,0,0,1,1,1v9H4ZM60,59a1,1,0,0,1-1,1H5a1,1,0,0,1-1-1V16H60Z"/><path d="M55,12H31a3,3,0,0,1,0-6H55a3,3,0,0,1,0,6ZM31,8a1,1,0,0,0,0,2H55a1,1,0,0,0,0-2Z"/><path d="M9,12a3,3,0,1,1,3-3A3,3,0,0,1,9,12ZM9,8a1,1,0,1,0,1,1A1,1,0,0,0,9,8Z"/><path d="M16,12a3,3,0,1,1,3-3A3,3,0,0,1,16,12Zm0-4a1,1,0,1,0,1,1A1,1,0,0,0,16,8Z"/><path d="M23,12a3,3,0,1,1,3-3A3,3,0,0,1,23,12Zm0-4a1,1,0,1,0,1,1A1,1,0,0,0,23,8Z"/><path d="M27,34H11a1,1,0,0,1-1-1V21a1,1,0,0,1,1-1H27a1,1,0,0,1,1,1V33A1,1,0,0,1,27,34ZM12,32H26V22H12Z"/><path d="M53,24H33a1,1,0,0,1,0-2H53a1,1,0,0,1,0,2Z"/><path d="M53,28H33a1,1,0,0,1,0-2H53a1,1,0,0,1,0,2Z"/><path d="M53,32H33a1,1,0,0,1,0-2H53a1,1,0,0,1,0,2Z"/><path d="M53,42H43a1,1,0,0,1-1-1V37a1,1,0,0,1,1-1H53a1,1,0,0,1,1,1v4A1,1,0,0,1,53,42Zm-9-2h8V38H44Z"/><path d="M21,42H11a1,1,0,0,1-1-1V37a1,1,0,0,1,1-1H21a1,1,0,0,1,1,1v4A1,1,0,0,1,21,42Zm-9-2h8V38H12Z"/><path d="M37,42H27a1,1,0,0,1-1-1V37a1,1,0,0,1,1-1H37a1,1,0,0,1,1,1v4A1,1,0,0,1,37,42Zm-9-2h8V38H28Z"/><path d="M53,56H11a1,1,0,0,1-1-1V45a1,1,0,0,1,1-1H53a1,1,0,0,1,1,1V55A1,1,0,0,1,53,56ZM12,54H52V46H12Z"/></g></svg>
