<?xml version="1.0" encoding="iso-8859-1"?>
<!-- Generator: Adobe Illustrator 19.0.0, SVG Export Plug-In . SVG Version: 6.00 Build 0)  -->
<svg version="1.1" id="Layer_1" xmlns="http://www.w3.org/2000/svg" xmlns:xlink="http://www.w3.org/1999/xlink" x="0px" y="0px"
	 viewBox="0 0 463.944 463.944" style="enable-background:new 0 0 463.944 463.944;" xml:space="preserve">
<g>
	<g>
		<g>
			<path d="M456.443,308.826h-54.297c-15.257-36.431-43.14-65.707-79.011-82.778c-2.861-1.364-6.273-0.777-8.52,1.462
				c-18.063,18.017-38.908,27.54-60.283,27.54c-21.372,0-42.222-9.523-60.295-27.542c-2.245-2.239-5.656-2.824-8.519-1.46
				c-26.96,12.832-49.777,32.91-65.983,58.065c-16.645,25.834-25.442,55.811-25.442,86.687v0.13c0,2.116,0.895,4.134,2.462,5.556
				c43.28,39.249,99.313,60.864,157.777,60.864c4.143,0,7.5-3.358,7.5-7.5c0-4.142-3.357-7.5-7.5-7.5
				c-53.612,0-105.044-19.418-145.205-54.746c0.583-26.858,8.512-52.851,23.018-75.367c13.763-21.362,32.783-38.686,55.219-50.354
				c20.057,18.449,43.11,28.167,66.969,28.167c23.862,0,46.913-9.718,66.962-28.167c28.415,14.753,50.894,38.156,64.443,66.944
				h-23.113l-30.749-41.5c-1.928-2.601-5.309-3.673-8.377-2.657c-3.073,1.015-5.149,3.886-5.149,7.122v37.035h-19.398
				c-4.143,0-7.5,3.358-7.5,7.5v128.994c0,4.142,3.357,7.5,7.5,7.5h157.492c4.143,0,7.5-3.358,7.5-7.5V316.326
				C463.943,312.184,460.586,308.826,456.443,308.826z M448.943,437.82H306.451V323.826h19.398c4.143,0,7.5-3.358,7.5-7.5v-21.814
				l19.472,26.279c1.415,1.909,3.65,3.035,6.026,3.035h90.096V437.82z"/>
			<path d="M322.949,362.987c0,4.142,3.357,7.5,7.5,7.5h94.495c4.143,0,7.5-3.358,7.5-7.5c0-4.142-3.357-7.5-7.5-7.5h-94.495
				C326.306,355.487,322.949,358.845,322.949,362.987z"/>
			<path d="M424.944,391.485h-94.495c-4.143,0-7.5,3.358-7.5,7.5c0,4.142,3.357,7.5,7.5,7.5h94.495c4.143,0,7.5-3.358,7.5-7.5
				C432.444,394.843,429.087,391.485,424.944,391.485z"/>
			<path d="M162.346,124.985c0,24.949,9.76,53.752,26.106,77.048c18.523,26.398,41.921,40.936,65.881,40.936
				c23.96,0,47.357-14.538,65.881-40.936c16.348-23.296,26.107-52.099,26.107-77.048c0-50.722-41.266-91.988-91.988-91.988
				S162.346,74.263,162.346,124.985z M254.333,47.997c42.451,0,76.988,34.537,76.988,76.988c0,21.654-8.961,47.876-23.386,68.432
				c-15.408,21.958-34.946,34.552-53.603,34.552c-18.657,0-38.194-12.594-53.603-34.552c-14.424-20.556-23.385-46.777-23.385-68.432
				C177.346,82.534,211.882,47.997,254.333,47.997z"/>
			<path d="M276.152,421.219c-3.14,0.16-5.881,2.314-6.806,5.313c-0.961,3.115,0.303,6.608,3.009,8.418
				c2.57,1.719,6.075,1.65,8.573-0.172c2.746-2.004,3.85-5.788,2.516-8.938C282.23,422.956,279.293,421.059,276.152,421.219z"/>
			<path d="M283.444,425.84C283.635,426.29,283.255,425.39,283.444,425.84L283.444,425.84z"/>
			<path d="M83.884,341.653c-25.171-7.743-48.903-21.005-68.843-38.444c0.582-22.87,7.375-44.992,19.734-64.173
				c11.679-18.125,27.769-32.861,46.742-42.868c17.409,15.818,37.386,24.147,58.071,24.147c12.229,0,24.253-2.914,35.739-8.662
				c3.704-1.854,5.204-6.359,3.351-10.063c-1.854-3.705-6.359-5.205-10.063-3.351c-9.383,4.695-19.149,7.076-29.026,7.076
				c-18.209,0-35.99-8.134-51.423-23.524c-2.247-2.24-5.657-2.824-8.52-1.461c-23.485,11.18-43.362,28.671-57.479,50.582
				C7.665,253.417,0,279.529,0,306.423v0.112c0,2.116,0.895,4.134,2.462,5.556c22.061,20.007,48.69,35.187,77.012,43.898
				c0.734,0.226,1.478,0.333,2.208,0.333c3.206,0,6.174-2.072,7.166-5.297C90.065,347.067,87.843,342.871,83.884,341.653z"/>
			<path d="M139.256,194.291c8.412,0,16.808-2.053,24.953-6.101c3.709-1.844,5.222-6.345,3.378-10.054
				c-1.844-3.709-6.344-5.221-10.054-3.378c-6.053,3.008-12.202,4.534-18.277,4.534c-15.752,0-32.296-10.703-45.39-29.364
				c-12.324-17.566-19.98-39.957-19.98-58.436c0-36.045,29.325-65.37,65.37-65.37c17.013,0,33.124,6.504,45.367,18.315
				c2.981,2.877,7.73,2.79,10.604-0.19c2.876-2.981,2.791-7.729-0.19-10.604c-15.053-14.522-34.863-22.52-55.781-22.52
				c-44.316,0-80.37,36.054-80.37,80.37c0,21.726,8.486,46.792,22.702,67.051C97.762,181.596,118.242,194.291,139.256,194.291z"/>
		</g>
	</g>
</g>
<g>
</g>
<g>
</g>
<g>
</g>
<g>
</g>
<g>
</g>
<g>
</g>
<g>
</g>
<g>
</g>
<g>
</g>
<g>
</g>
<g>
</g>
<g>
</g>
<g>
</g>
<g>
</g>
<g>
</g>
</svg>
