<?xml version="1.0" encoding="iso-8859-1"?>
<!-- Generator: Adobe Illustrator 19.0.0, SVG Export Plug-In . SVG Version: 6.00 Build 0)  -->
<svg version="1.1" id="Layer_1" xmlns="http://www.w3.org/2000/svg" xmlns:xlink="http://www.w3.org/1999/xlink" x="0px" y="0px"
	 viewBox="0 0 460.609 460.609" style="enable-background:new 0 0 460.609 460.609;" xml:space="preserve">
<g>
	<g>
		<g>
			<path d="M162.346,123.317c0,24.949,9.759,53.752,26.106,77.048c18.524,26.398,41.921,40.936,65.881,40.936
				c23.96,0,47.357-14.538,65.881-40.936c16.347-23.296,26.106-52.099,26.106-77.048c0-50.722-41.266-91.988-91.987-91.988
				C203.611,31.33,162.346,72.595,162.346,123.317z M254.333,46.33c42.451,0,76.987,34.537,76.987,76.988
				c0,21.655-8.961,47.876-23.385,68.432c-15.409,21.958-34.946,34.552-53.603,34.552c-18.657,0-38.194-12.594-53.603-34.552
				c-14.425-20.556-23.385-46.777-23.385-68.432C177.346,80.866,211.882,46.33,254.333,46.33z"/>
			<path d="M334.667,413.602c-0.073-0.172-0.063-0.145-0.034-0.072c-0.378-0.873-0.911-1.695-1.596-2.358
				c-2.683-2.764-7.271-2.884-10.173-0.401c-2.742,2.347-3.417,6.452-1.562,9.554c1.95,3.26,6.2,4.558,9.64,2.927
				c3.585-1.7,5.146-5.913,3.75-9.576C334.723,413.752,334.737,413.782,334.667,413.602z"/>
			<path d="M83.884,339.985c-25.171-7.743-48.904-21.005-68.843-38.444c0.582-22.87,7.375-44.992,19.735-64.173
				c11.678-18.125,27.768-32.861,46.742-42.868c17.409,15.818,37.386,24.147,58.071,24.147c12.229,0,24.253-2.914,35.739-8.662
				c3.704-1.854,5.204-6.359,3.351-10.063c-1.853-3.704-6.359-5.205-10.063-3.351c-9.382,4.695-19.148,7.076-29.026,7.076
				c-18.208,0-35.991-8.134-51.423-23.524c-2.245-2.239-5.657-2.822-8.52-1.461c-23.486,11.18-43.362,28.671-57.48,50.582
				C7.665,251.749,0,277.861,0,304.756v0.112c0,2.116,0.894,4.134,2.461,5.556c22.061,20.007,48.691,35.187,77.013,43.898
				c0.734,0.226,1.477,0.333,2.208,0.333c3.206,0,6.174-2.072,7.166-5.297C90.065,345.4,87.843,341.203,83.884,339.985z"/>
			<path d="M139.256,192.624c8.412,0,16.807-2.053,24.953-6.101c3.709-1.844,5.222-6.345,3.378-10.054
				c-1.843-3.709-6.344-5.221-10.054-3.378c-6.053,3.008-12.202,4.534-18.277,4.534c-15.752,0-32.296-10.703-45.389-29.364
				c-12.325-17.566-19.981-39.957-19.981-58.436c0-36.045,29.325-65.37,65.37-65.37c17.013,0,33.124,6.504,45.367,18.315
				c2.98,2.875,7.729,2.79,10.604-0.19c2.876-2.981,2.791-7.729-0.19-10.604c-15.053-14.522-34.863-22.52-55.781-22.52
				c-44.316,0-80.37,36.054-80.37,80.37c0,21.726,8.487,46.792,22.702,67.051C97.763,179.928,118.243,192.624,139.256,192.624z"/>
			<path d="M400.14,199.357c-25.101,0-46.672,15.376-55.806,37.202c-6.739-4.583-13.829-8.67-21.191-12.177
				c-2.864-1.364-6.275-0.779-8.522,1.461c-18.063,18.017-38.908,27.54-60.283,27.54c-21.372,0-42.222-9.524-60.295-27.542
				c-2.246-2.239-5.656-2.824-8.518-1.46c-26.961,12.832-49.78,32.911-65.989,58.065c-16.648,25.836-25.448,55.812-25.448,86.687
				v0.13c0,2.117,0.895,4.135,2.462,5.556c43.291,39.249,99.328,60.864,157.788,60.864c18.44,0,36.806-2.145,54.586-6.375
				c4.029-0.959,6.519-5.003,5.56-9.032c-0.958-4.029-4.997-6.521-9.032-5.561c-16.644,3.96-33.841,5.968-51.113,5.968
				c-53.609,0-105.044-19.419-145.216-54.747c0.583-26.857,8.513-52.849,23.022-75.366c13.765-21.362,32.787-38.686,55.224-50.354
				c20.057,18.449,43.11,28.167,66.969,28.167c23.861,0,46.911-9.718,66.958-28.165c6.595,3.434,12.921,7.381,18.902,11.775
				c-0.333,2.566-0.524,5.176-0.524,7.832v142.284c0,27.042,22.001,49.043,49.043,49.043s49.043-22,49.043-49.043V287.415
				c0-20.17-16.41-36.58-36.58-36.58s-36.58,16.41-36.58,36.58V390.15c0,4.142,3.357,7.5,7.5,7.5s7.5-3.358,7.5-7.5V287.415
				c0-11.899,9.681-21.58,21.58-21.58s21.58,9.681,21.58,21.58v114.694c0,18.771-15.271,34.043-34.043,34.043
				c-18.772,0-34.043-15.271-34.043-34.043V259.824c0-25.071,20.396-45.468,45.468-45.468c25.07,0,45.467,20.397,45.467,45.468
				V390.15c0,4.142,3.357,7.5,7.5,7.5s7.5-3.358,7.5-7.5V259.824C460.608,226.483,433.482,199.357,400.14,199.357z"/>
		</g>
	</g>
</g>
<g>
</g>
<g>
</g>
<g>
</g>
<g>
</g>
<g>
</g>
<g>
</g>
<g>
</g>
<g>
</g>
<g>
</g>
<g>
</g>
<g>
</g>
<g>
</g>
<g>
</g>
<g>
</g>
<g>
</g>
</svg>
