<?xml version="1.0" encoding="iso-8859-1"?>
<!-- Generator: Adobe Illustrator 19.0.0, SVG Export Plug-In . SVG Version: 6.00 Build 0)  -->
<svg version="1.1" id="Layer_1" xmlns="http://www.w3.org/2000/svg" xmlns:xlink="http://www.w3.org/1999/xlink" x="0px" y="0px"
	 viewBox="0 0 432.116 432.116" style="enable-background:new 0 0 432.116 432.116;" xml:space="preserve">
<g>
	<g>
		<g>
			<path d="M184.008,209.972c23.96,0,47.357-14.538,65.881-40.936c16.347-23.296,26.106-52.099,26.106-77.048
				C275.995,41.266,234.728,0,184.008,0c-50.723,0-91.988,41.266-91.988,91.988c0,24.949,9.76,53.752,26.107,77.048
				C136.649,195.434,160.048,209.972,184.008,209.972z M184.008,15c42.451,0,76.987,34.537,76.987,76.988
				c0,21.655-8.961,47.876-23.385,68.432c-15.408,21.958-34.946,34.552-53.603,34.552c-18.657,0-38.194-12.594-53.603-34.552
				c-14.425-20.556-23.386-46.778-23.386-68.432C107.019,49.537,141.556,15,184.008,15z"/>
			<path d="M215.761,387.088c-6.897,0-10.091,8.956-4.724,13.32c5.342,4.343,13.5-0.584,12.061-7.364
				C222.373,389.622,219.264,387.088,215.761,387.088z"/>
			<path d="M310.863,237.118c-0.727,0-1.452,0.012-2.176,0.028c-15.063-18.626-34.3-33.831-55.87-44.1
				c-2.862-1.363-6.275-0.777-8.52,1.462c-18.071,18.023-38.921,27.55-60.295,27.55c-21.377,0-42.222-9.526-60.281-27.549
				c-2.246-2.241-5.657-2.827-8.522-1.463c-26.963,12.838-49.782,32.917-65.992,58.067c-16.652,25.836-25.454,55.811-25.454,86.684
				v0.13c0,2.116,0.895,4.134,2.462,5.556c43.28,39.249,99.317,60.864,157.788,60.864c3.089,0,6.21-0.061,9.277-0.18
				c4.139-0.161,7.364-3.646,7.203-7.785c-0.161-4.139-3.638-7.382-7.785-7.203c-2.874,0.111-5.8,0.168-8.695,0.168
				c-53.619,0-105.055-19.418-145.215-54.746c0.583-26.854,8.514-52.845,23.026-75.362c13.767-21.359,32.789-38.684,55.229-50.357
				c20.044,18.454,43.095,28.175,66.96,28.175c23.862,0,46.914-9.72,66.969-28.175c14.824,7.722,28.305,18.052,39.688,30.345
				c-44.099,9.33-77.296,48.553-77.296,95.389c0,53.762,43.738,97.5,97.5,97.5c53.762,0,97.5-43.738,97.5-97.5
				C408.363,280.854,364.625,237.118,310.863,237.118z M310.863,417.118c-45.49,0-82.5-37.009-82.5-82.5
				c0-45.491,37.01-82.5,82.5-82.5s82.5,37.009,82.5,82.5C393.363,380.109,356.353,417.118,310.863,417.118z"/>
			<path d="M321.471,334.618l38.697-38.697c2.927-2.928,2.927-7.677-0.002-10.606c-2.93-2.929-7.678-2.929-10.607,0l-38.696,38.696
				l-38.696-38.696c-2.93-2.929-7.678-2.929-10.607,0c-2.929,2.929-2.929,7.678,0,10.606l38.697,38.697l-38.697,38.697
				c-2.929,2.929-2.929,7.678,0,10.606c1.465,1.464,3.385,2.197,5.304,2.197c1.919,0,3.839-0.732,5.304-2.197l38.696-38.696
				l38.696,38.696c1.465,1.464,3.385,2.197,5.304,2.197c1.919,0,3.839-0.732,5.304-2.197c2.929-2.929,2.929-7.678,0-10.606
				L321.471,334.618z"/>
		</g>
	</g>
</g>
<g>
</g>
<g>
</g>
<g>
</g>
<g>
</g>
<g>
</g>
<g>
</g>
<g>
</g>
<g>
</g>
<g>
</g>
<g>
</g>
<g>
</g>
<g>
</g>
<g>
</g>
<g>
</g>
<g>
</g>
</svg>
