<?xml version="1.0" encoding="iso-8859-1"?>
<!-- Generator: Adobe Illustrator 19.0.0, SVG Export Plug-In . SVG Version: 6.00 Build 0)  -->
<svg version="1.1" id="Layer_1" xmlns="http://www.w3.org/2000/svg" xmlns:xlink="http://www.w3.org/1999/xlink" x="0px" y="0px"
	 viewBox="0 0 432.116 432.116" style="enable-background:new 0 0 432.116 432.116;" xml:space="preserve">
<g>
	<g>
		<g>
			<path d="M184.005,209.972c23.96,0,47.357-14.538,65.881-40.936c16.347-23.296,26.106-52.099,26.106-77.048
				C275.993,41.266,234.727,0,184.005,0S92.017,41.266,92.017,91.988c0,24.949,9.759,53.752,26.107,77.048
				C136.648,195.434,160.046,209.972,184.005,209.972z M184.005,15c42.451,0,76.988,34.537,76.988,76.988
				c0,21.655-8.96,47.876-23.385,68.432c-15.408,21.958-34.946,34.552-53.603,34.552c-18.657,0-38.194-12.594-53.603-34.552
				c-14.424-20.556-23.385-46.778-23.385-68.432C107.017,49.537,141.554,15,184.005,15z"/>
			<path d="M222.689,391.718c-0.079-0.186-0.06-0.139-0.026-0.055c-0.38-0.881-0.915-1.706-1.604-2.375
				c-2.816-2.897-7.785-2.9-10.6,0c-0.35,0.34-0.66,0.72-0.93,1.14c-2,2.859-1.562,7.038,0.93,9.46
				c2.491,2.562,6.674,2.889,9.582,0.854c2.861-2.002,3.938-5.753,2.658-8.99C222.74,391.849,222.77,391.919,222.689,391.718z"/>
			<path d="M310.861,237.118c-0.727,0-1.452,0.012-2.176,0.028c-15.062-18.626-34.3-33.831-55.87-44.1
				c-2.863-1.363-6.274-0.778-8.52,1.462c-18.07,18.023-38.919,27.55-60.293,27.55c-21.377,0-42.222-9.526-60.282-27.549
				c-2.247-2.242-5.659-2.827-8.522-1.463c-26.963,12.838-49.783,32.917-65.992,58.067c-16.652,25.836-25.454,55.811-25.454,86.684
				v0.13c0,2.116,0.894,4.134,2.462,5.556c43.279,39.249,99.316,60.864,157.788,60.864c3.088,0,6.209-0.061,9.277-0.18
				c4.139-0.161,7.364-3.646,7.203-7.785c-0.161-4.139-3.655-7.365-7.785-7.203c-2.874,0.111-5.799,0.168-8.695,0.168
				c-53.62,0-105.055-19.418-145.215-54.746c0.583-26.855,8.515-52.846,23.027-75.363c13.766-21.359,32.788-38.684,55.228-50.357
				c20.046,18.456,43.095,28.175,66.961,28.175c23.862,0,46.914-9.72,66.968-28.175c14.824,7.723,28.305,18.052,39.688,30.346
				c-44.099,9.33-77.296,48.553-77.296,95.389c0,53.762,43.738,97.5,97.5,97.5c53.762,0,97.5-43.738,97.5-97.5
				C408.363,280.854,364.624,237.118,310.861,237.118z M310.861,417.118c-45.491,0-82.5-37.009-82.5-82.5
				c0-45.491,37.009-82.5,82.5-82.5c45.491,0,82.5,37.009,82.5,82.5C393.361,380.109,356.353,417.118,310.861,417.118z"/>
			<path d="M373.087,327.118H248.637c-4.142,0-7.5,3.358-7.5,7.5c0,4.142,3.358,7.5,7.5,7.5h124.451c4.142,0,7.5-3.358,7.5-7.5
				C380.587,330.476,377.229,327.118,373.087,327.118z"/>
		</g>
	</g>
</g>
<g>
</g>
<g>
</g>
<g>
</g>
<g>
</g>
<g>
</g>
<g>
</g>
<g>
</g>
<g>
</g>
<g>
</g>
<g>
</g>
<g>
</g>
<g>
</g>
<g>
</g>
<g>
</g>
<g>
</g>
</svg>
