<?xml version="1.0" encoding="iso-8859-1"?>
<!-- Generator: Adobe Illustrator 19.0.0, SVG Export Plug-In . SVG Version: 6.00 Build 0)  -->
<svg version="1.1" id="Layer_1" xmlns="http://www.w3.org/2000/svg" xmlns:xlink="http://www.w3.org/1999/xlink" x="0px" y="0px"
	 viewBox="0 0 457.715 457.715" style="enable-background:new 0 0 457.715 457.715;" xml:space="preserve">
<g>
	<g>
		<g>
			<path d="M450.215,315.877h-5.833v-31.5c0-15.582-6.067-30.23-17.082-41.245c-11.015-11.021-25.665-17.09-41.253-17.09
				c-13.775,0-26.441,4.81-36.432,12.824c-8.275-6.139-17.151-11.494-26.479-15.933c-2.862-1.364-6.274-0.778-8.521,1.463
				c-18.054,18.016-38.898,27.539-60.282,27.539c-21.372,0-42.222-9.524-60.295-27.542c-2.245-2.239-5.657-2.824-8.518-1.46
				c-26.961,12.832-49.778,32.91-65.984,58.065c-16.646,25.835-25.443,55.811-25.443,86.687v0.13c0,2.116,0.895,4.134,2.462,5.556
				c43.28,39.249,99.313,60.864,157.778,60.864c7.535,0,15.183-0.365,22.731-1.084c4.123-0.393,7.147-4.054,6.754-8.178
				s-4.047-7.152-8.178-6.755c-7.076,0.675-14.246,1.017-21.308,1.017c-53.613,0-105.045-19.418-145.205-54.746
				c0.582-26.858,8.511-52.851,23.018-75.367c13.763-21.362,32.782-38.687,55.219-50.354c20.057,18.449,43.11,28.167,66.969,28.167
				c23.871,0,46.921-9.718,66.961-28.166c6.206,3.229,12.169,6.911,17.831,10.995c-7.166,9.689-11.413,21.663-11.413,34.612v31.5
				h-5.833c-4.143,0-7.5,3.358-7.5,7.5v118.829c0,4.142,3.357,7.5,7.5,7.5h128.336c4.143,0,7.5-3.358,7.5-7.5V323.377
				C457.715,319.235,454.357,315.877,450.215,315.877z M342.712,284.378L342.712,284.378c0-23.895,19.44-43.335,43.335-43.335
				c11.579,0,22.462,4.508,30.645,12.695c8.184,8.184,12.69,19.065,12.69,30.64v31.5h-86.67V284.378z M442.715,434.707H329.379
				v-103.83h113.336V434.707z"/>
			<path d="M162.346,121.872c0,24.949,9.76,53.752,26.106,77.048c18.523,26.398,41.921,40.936,65.881,40.936
				c23.961,0,47.357-14.538,65.882-40.936c16.347-23.296,26.106-52.099,26.106-77.048c0-50.722-41.266-91.988-91.988-91.988
				S162.346,71.149,162.346,121.872z M254.333,44.884c42.451,0,76.988,34.537,76.988,76.988c0,21.655-8.961,47.876-23.385,68.432
				c-15.409,21.958-34.946,34.552-53.604,34.552c-18.656,0-38.193-12.594-53.603-34.552c-14.424-20.556-23.385-46.777-23.385-68.432
				C177.346,79.42,211.882,44.884,254.333,44.884z"/>
			<path d="M302.851,416.434c0.094,0.063,0.169,0.112-0.021-0.017c-0.188-0.124-0.116-0.075-0.024-0.013
				c-2.721-1.777-6.381-1.617-8.898,0.458c-2.477,2.042-3.38,5.495-2.235,8.492c1.092,2.858,3.923,4.803,6.987,4.803
				c3.207,0,6.117-2.113,7.121-5.152C306.828,421.833,305.587,418.315,302.851,416.434z"/>
			<path d="M83.885,338.54c-25.172-7.743-48.904-21.005-68.844-38.444c0.582-22.87,7.375-44.992,19.734-64.173
				c11.679-18.125,27.769-32.861,46.742-42.868c17.409,15.818,37.387,24.147,58.072,24.147c12.228,0,24.252-2.914,35.738-8.662
				c3.704-1.854,5.204-6.359,3.351-10.063c-1.854-3.705-6.358-5.205-10.063-3.351c-9.383,4.695-19.148,7.076-29.025,7.076
				c-18.209,0-35.991-8.134-51.424-23.524c-2.246-2.24-5.658-2.824-8.52-1.461c-23.485,11.18-43.362,28.671-57.479,50.582
				C7.665,250.304,0,276.416,0,303.31v0.112c0,2.116,0.895,4.134,2.462,5.556c22.061,20.007,48.691,35.187,77.013,43.898
				c0.734,0.226,1.478,0.333,2.208,0.333c3.206,0,6.174-2.072,7.166-5.297C90.066,343.954,87.844,339.757,83.885,338.54z"/>
			<path d="M139.256,191.178c8.412,0,16.808-2.053,24.953-6.101c3.709-1.844,5.222-6.345,3.378-10.054
				c-1.843-3.709-6.344-5.221-10.054-3.378c-6.053,3.008-12.202,4.534-18.277,4.534c-15.752,0-32.296-10.703-45.39-29.364
				c-12.324-17.566-19.98-39.957-19.98-58.436c0-36.045,29.325-65.37,65.37-65.37c17.014,0,33.125,6.504,45.368,18.315
				c2.981,2.877,7.729,2.79,10.604-0.19c2.876-2.981,2.791-7.729-0.19-10.604c-15.053-14.522-34.863-22.52-55.782-22.52
				c-44.316,0-80.37,36.054-80.37,80.37c0,21.726,8.486,46.792,22.702,67.051C97.762,178.482,118.242,191.178,139.256,191.178z"/>
		</g>
	</g>
</g>
<g>
</g>
<g>
</g>
<g>
</g>
<g>
</g>
<g>
</g>
<g>
</g>
<g>
</g>
<g>
</g>
<g>
</g>
<g>
</g>
<g>
</g>
<g>
</g>
<g>
</g>
<g>
</g>
<g>
</g>
</svg>
