<?xml version="1.0" encoding="iso-8859-1"?>
<!-- Generator: Adobe Illustrator 19.0.0, SVG Export Plug-In . SVG Version: 6.00 Build 0)  -->
<svg version="1.1" id="Layer_1" xmlns="http://www.w3.org/2000/svg" xmlns:xlink="http://www.w3.org/1999/xlink" x="0px" y="0px"
	 viewBox="0 0 432.116 432.116" style="enable-background:new 0 0 432.116 432.116;" xml:space="preserve">
<g>
	<g>
		<g>
			<path d="M184.008,209.972c23.96,0,47.357-14.538,65.881-40.936c16.347-23.296,26.106-52.099,26.106-77.048
				C275.995,41.266,234.728,0,184.008,0c-50.723,0-91.988,41.266-91.988,91.988c0,24.949,9.76,53.752,26.107,77.048
				C136.649,195.434,160.048,209.972,184.008,209.972z M184.008,15c42.451,0,76.987,34.537,76.987,76.988
				c0,21.655-8.961,47.876-23.385,68.432c-15.408,21.958-34.946,34.552-53.603,34.552c-18.657,0-38.194-12.594-53.603-34.552
				c-14.425-20.556-23.386-46.778-23.386-68.432C107.019,49.537,141.556,15,184.008,15z"/>
			<path d="M222.691,391.718c-0.079-0.187-0.06-0.139-0.026-0.054c-0.38-0.88-0.916-1.707-1.604-2.376
				c-2.685-2.766-7.268-2.888-10.17-0.402c-2.881,2.469-3.468,6.863-1.284,9.983c2.148,3.069,6.37,4.109,9.688,2.333
				c3.361-1.798,4.793-5.902,3.415-9.429C222.745,391.858,222.765,391.904,222.691,391.718z"/>
			<path d="M310.863,237.118c-0.728,0-1.452,0.012-2.176,0.028c-15.063-18.626-34.3-33.831-55.87-44.1
				c-2.862-1.363-6.275-0.777-8.52,1.462c-18.071,18.023-38.921,27.55-60.295,27.55c-21.377,0-42.222-9.526-60.281-27.549
				c-2.246-2.241-5.657-2.827-8.522-1.463c-26.963,12.838-49.782,32.917-65.992,58.067c-16.652,25.836-25.454,55.811-25.454,86.684
				v0.13c0,2.116,0.895,4.134,2.462,5.556c43.28,39.249,99.317,60.864,157.788,60.864c3.089,0,6.21-0.061,9.277-0.18
				c4.139-0.161,7.364-3.646,7.203-7.785c-0.16-4.139-3.651-7.382-7.785-7.203c-2.874,0.111-5.8,0.168-8.695,0.168
				c-53.619,0-105.055-19.418-145.215-54.746c0.583-26.854,8.514-52.845,23.026-75.362c13.767-21.359,32.789-38.684,55.229-50.357
				c20.044,18.454,43.095,28.175,66.96,28.175c23.862,0,46.914-9.72,66.969-28.175c14.824,7.722,28.305,18.052,39.688,30.345
				c-44.099,9.33-77.296,48.553-77.296,95.389c0,53.762,43.738,97.5,97.5,97.5c53.762,0,97.5-43.738,97.5-97.5
				C408.363,280.854,364.625,237.118,310.863,237.118z M310.863,417.118c-45.49,0-82.5-37.009-82.5-82.5
				c0-45.491,37.01-82.5,82.5-82.5s82.5,37.009,82.5,82.5C393.363,380.109,356.353,417.118,310.863,417.118z"/>
			<path d="M372.923,314.454c-0.882-2.715-3.229-4.694-6.055-5.104l-34.051-4.948l-15.229-30.856
				c-1.264-2.56-3.871-4.181-6.726-4.181c-2.855,0-5.462,1.621-6.726,4.181l-15.228,30.856l-34.052,4.948
				c-2.825,0.41-5.173,2.389-6.055,5.104c-0.882,2.715-0.146,5.695,1.897,7.688l24.641,24.018l-5.816,33.913
				c-0.483,2.814,0.674,5.658,2.983,7.335c2.309,1.678,5.37,1.9,7.898,0.571l30.456-16.012l30.456,16.012
				c1.098,0.577,2.296,0.861,3.489,0.861c1.556,0,3.103-0.483,4.409-1.433c2.31-1.678,3.467-4.521,2.983-7.335l-5.816-33.913
				l24.641-24.018C373.069,320.149,373.805,317.169,372.923,314.454z M333.091,338.171c-1.768,1.723-2.574,4.206-2.156,6.639
				l3.914,22.822l-20.495-10.775c-1.093-0.574-2.291-0.861-3.49-0.861c-1.199,0-2.397,0.287-3.49,0.861l-20.495,10.775l3.914-22.822
				c0.418-2.433-0.389-4.916-2.156-6.639l-16.582-16.163l22.915-3.33c2.443-0.355,4.555-1.889,5.647-4.103l10.247-20.764
				l10.248,20.764c1.093,2.213,3.204,3.748,5.647,4.103l22.914,3.33L333.091,338.171z"/>
		</g>
	</g>
</g>
<g>
</g>
<g>
</g>
<g>
</g>
<g>
</g>
<g>
</g>
<g>
</g>
<g>
</g>
<g>
</g>
<g>
</g>
<g>
</g>
<g>
</g>
<g>
</g>
<g>
</g>
<g>
</g>
<g>
</g>
</svg>
