<?xml version="1.0" encoding="iso-8859-1"?>
<!-- Generator: Adobe Illustrator 19.0.0, SVG Export Plug-In . SVG Version: 6.00 Build 0)  -->
<svg version="1.1" id="Layer_1" xmlns="http://www.w3.org/2000/svg" xmlns:xlink="http://www.w3.org/1999/xlink" x="0px" y="0px"
	 viewBox="0 0 457.647 457.647" style="enable-background:new 0 0 457.647 457.647;" xml:space="preserve">
<g>
	<g>
		<g>
			<path d="M162.345,121.837c0,24.949,9.759,53.752,26.107,77.048c18.524,26.398,41.921,40.936,65.881,40.936
				s47.357-14.538,65.881-40.936c16.347-23.296,26.106-52.099,26.106-77.048c0-50.722-41.266-91.988-91.988-91.988
				C203.61,29.849,162.345,71.114,162.345,121.837z M254.333,44.849c42.451,0,76.988,34.537,76.988,76.988
				c0,21.655-8.96,47.876-23.385,68.432c-15.408,21.958-34.946,34.552-53.603,34.552c-18.657,0-38.194-12.594-53.603-34.552
				c-14.424-20.556-23.385-46.778-23.385-68.432C177.345,79.385,211.882,44.849,254.333,44.849z"/>
			<path d="M293.526,421.621c-0.078-0.185-0.06-0.139-0.026-0.054c-0.379-0.879-0.915-1.707-1.604-2.376
				c-2.814-2.899-7.786-2.895-10.6,0c-4.125,4.004-2,11.176,3.459,12.567c5.904,1.506,10.985-4.514,8.783-10.099
				C293.578,421.754,293.606,421.82,293.526,421.621z"/>
			<path d="M83.884,338.505c-25.171-7.743-48.904-21.005-68.843-38.444c0.582-22.87,7.375-44.992,19.735-64.173
				c11.678-18.125,27.768-32.861,46.742-42.868c17.409,15.818,37.387,24.147,58.072,24.147c12.229,0,24.252-2.914,35.738-8.662
				c3.704-1.854,5.204-6.359,3.351-10.063c-1.853-3.704-6.359-5.205-10.063-3.351c-9.382,4.695-19.148,7.076-29.025,7.076
				c-18.209,0-35.991-8.134-51.424-23.524c-2.245-2.239-5.658-2.822-8.52-1.461c-23.485,11.18-43.361,28.671-57.479,50.582
				C7.665,250.269,0,276.381,0,303.275v0.112c0,2.116,0.894,4.134,2.461,5.556c22.061,20.007,48.691,35.187,77.013,43.898
				c0.734,0.226,1.477,0.333,2.208,0.333c3.206,0,6.174-2.072,7.166-5.297C90.065,343.919,87.843,339.722,83.884,338.505z"/>
			<path d="M139.256,191.143c8.412,0,16.808-2.053,24.953-6.101c3.709-1.844,5.222-6.345,3.378-10.054
				c-1.843-3.709-6.344-5.221-10.054-3.378c-6.053,3.008-12.202,4.534-18.277,4.534c-15.752,0-32.296-10.703-45.389-29.364
				c-12.324-17.565-19.98-39.957-19.98-58.436c0-36.045,29.325-65.37,65.37-65.37c17.013,0,33.125,6.504,45.368,18.315
				c2.98,2.875,7.729,2.79,10.604-0.19c2.876-2.981,2.791-7.729-0.19-10.604c-15.053-14.522-34.864-22.52-55.782-22.52
				c-44.316,0-80.37,36.054-80.37,80.37c0,21.726,8.486,46.792,22.702,67.051C97.762,178.447,118.243,191.143,139.256,191.143z"/>
			<path d="M383.438,272.74c-15.684-21.297-36.459-38.5-60.295-49.848c-2.862-1.363-6.276-0.778-8.521,1.463
				c-18.06,18.022-38.905,27.548-60.282,27.548c-21.375,0-42.224-9.526-60.294-27.55c-2.246-2.241-5.659-2.826-8.521-1.461
				c-26.961,12.837-49.78,32.918-65.988,58.073c-16.647,25.838-25.447,55.814-25.447,86.689v0.13c0,2.116,0.894,4.134,2.461,5.556
				c43.272,39.243,99.31,60.854,157.789,60.854c3.648,0,7.335-0.084,10.958-0.251c4.138-0.191,7.337-3.7,7.147-7.837
				c-0.191-4.138-3.71-7.343-7.837-7.147c-3.394,0.157-6.849,0.236-10.268,0.236c-53.627,0-105.062-19.415-145.215-54.736
				c0.583-26.857,8.513-52.85,23.022-75.368c13.765-21.362,32.786-38.689,55.224-50.362c20.054,18.455,43.107,28.176,66.97,28.176
				c23.865,0,46.915-9.721,66.959-28.174c15.896,8.275,30.154,19.477,42.01,32.919c-46.692,2.725-83.844,41.569-83.844,88.932
				c0,49.125,39.966,89.09,89.09,89.09c49.125,0,89.091-39.966,89.091-89.09C457.647,316.527,425.503,279.844,383.438,272.74z
				 M368.556,434.672c-40.854,0-74.09-33.237-74.09-74.09c0-40.854,33.237-74.091,74.09-74.091
				c40.854,0,74.091,33.237,74.091,74.091C442.647,401.435,409.41,434.672,368.556,434.672z"/>
			<path d="M413.749,315.389c-2.929-2.929-7.678-2.929-10.606,0l-34.586,34.586l-34.586-34.586c-2.929-2.929-7.678-2.929-10.606,0
				c-2.929,2.929-2.929,7.678,0,10.606l34.586,34.586l-34.586,34.586c-2.929,2.929-2.929,7.678,0,10.606
				c1.464,1.464,3.384,2.197,5.303,2.197s3.839-0.732,5.303-2.197l34.586-34.586l34.586,34.586c1.464,1.464,3.384,2.197,5.303,2.197
				s3.839-0.732,5.303-2.197c2.929-2.929,2.929-7.678,0-10.606l-34.586-34.586l34.586-34.586
				C416.678,323.067,416.678,318.318,413.749,315.389z"/>
		</g>
	</g>
</g>
<g>
</g>
<g>
</g>
<g>
</g>
<g>
</g>
<g>
</g>
<g>
</g>
<g>
</g>
<g>
</g>
<g>
</g>
<g>
</g>
<g>
</g>
<g>
</g>
<g>
</g>
<g>
</g>
<g>
</g>
</svg>
