<?xml version="1.0" encoding="iso-8859-1"?>
<!-- Generator: Adobe Illustrator 19.0.0, SVG Export Plug-In . SVG Version: 6.00 Build 0)  -->
<svg version="1.1" id="Layer_1" xmlns="http://www.w3.org/2000/svg" xmlns:xlink="http://www.w3.org/1999/xlink" x="0px" y="0px"
	 viewBox="0 0 432.118 432.118" style="enable-background:new 0 0 432.118 432.118;" xml:space="preserve">
<g>
	<g>
		<g>
			<path d="M345.371,180.323c-24.414,0-45.479,14.552-55.018,35.43c-10.642-9.072-22.376-16.691-35.02-22.707
				c-2.863-1.362-6.274-0.776-8.52,1.462c-18.069,18.023-38.919,27.55-60.293,27.55c-21.377,0-42.222-9.526-60.282-27.549
				c-2.247-2.241-5.658-2.827-8.522-1.462c-26.962,12.837-49.78,32.917-65.988,58.067c-16.648,25.835-25.448,55.81-25.448,86.684
				v0.13c0,2.116,0.894,4.133,2.461,5.555c43.268,39.249,99.302,60.865,157.779,60.865c22.185,0,44.139-3.089,65.252-9.183
				c3.98-1.148,6.275-5.306,5.127-9.286c-1.148-3.98-5.308-6.274-9.285-5.126c-19.762,5.703-40.317,8.595-61.094,8.595
				c-53.624,0-105.056-19.418-145.205-54.745c0.583-26.856,8.513-52.848,23.022-75.363c13.764-21.359,32.784-38.684,55.222-50.356
				c20.046,18.456,43.095,28.175,66.961,28.175c23.862,0,46.917-9.722,66.971-28.177c11.683,6.075,22.443,13.713,32.107,22.744
				c-0.456,2.989-0.694,6.05-0.694,9.164v142.285c0,27.042,22.001,49.043,49.043,49.043s49.043-22,49.043-49.043V268.381
				c0-20.17-16.41-36.58-36.58-36.58c-20.17,0-36.58,16.41-36.58,36.58v102.735c0,4.142,3.357,7.5,7.5,7.5s7.5-3.358,7.5-7.5
				V268.381c0-11.899,9.681-21.58,21.58-21.58s21.58,9.681,21.58,21.58v114.694c0,18.771-15.271,34.043-34.043,34.043
				c-18.772,0-34.043-15.271-34.043-34.043V240.79c0-25.071,20.396-45.467,45.467-45.467c25.071,0,45.468,20.396,45.468,45.467
				v130.326c0,4.142,3.357,7.5,7.5,7.5s7.5-3.358,7.5-7.5V240.79C405.838,207.448,378.712,180.323,345.371,180.323z"/>
			<path d="M186.525,209.972c23.96,0,47.357-14.538,65.881-40.936c16.347-23.296,26.106-52.099,26.106-77.048
				C278.513,41.266,237.247,0,186.525,0c-50.723,0-91.987,41.266-91.987,91.988c0,24.949,9.759,53.752,26.106,77.048
				C139.168,195.434,162.565,209.972,186.525,209.972z M186.525,15c42.452,0,76.988,34.537,76.988,76.988
				c0,21.655-8.961,47.876-23.385,68.432c-15.409,21.958-34.946,34.552-53.603,34.552s-38.194-12.594-53.603-34.552
				c-14.425-20.556-23.385-46.777-23.385-68.432C109.538,49.537,144.074,15,186.525,15z"/>
			<path d="M277.782,377.688C277.971,378.138,277.602,377.238,277.782,377.688L277.782,377.688z"/>
			<path d="M270.677,373.06c-3.276,0.079-6.158,2.344-7.043,5.493c-1.866,6.646,5.882,12.044,11.509,8.151
				c2.846-1.968,3.991-5.82,2.639-9.016C276.648,374.846,273.717,372.986,270.677,373.06z"/>
		</g>
	</g>
</g>
<g>
</g>
<g>
</g>
<g>
</g>
<g>
</g>
<g>
</g>
<g>
</g>
<g>
</g>
<g>
</g>
<g>
</g>
<g>
</g>
<g>
</g>
<g>
</g>
<g>
</g>
<g>
</g>
<g>
</g>
</svg>
